<svg xmlns="http://www.w3.org/2000/svg" xmlns:xlink="http://www.w3.org/1999/xlink" xmlns:lucid="lucid" width="2143" height="1390"><g transform="translate(-19 -19)" lucid:page-tab-id="0_0"><path d="M20 1110a10 10 0 0 1 10-10h320a10 10 0 0 1 10 10v180a10 10 0 0 1-10 10H30a10 10 0 0 1-10-10z" fill="#fff"/><path d="M20 1140h340v33H20z" fill="#fff"/><path d="M20 1172h340v33H20z" fill="#fff"/><path d="M20 1204h340v33H20z" fill="#fff"/><path d="M20 1236h340v33H20z" fill="#fff"/><path d="M20 1268h340v22a10 10 0 0 1-10 10H30a10 10 0 0 1-10-10z" fill="#fff"/><path d="M21 1140h338H21zM20 1110a10 10 0 0 1 10-10h320a10 10 0 0 1 10 10v180a10 10 0 0 1-10 10H30a10 10 0 0 1-10-10zM132.67 1141v158zM235.55 1141v158z" stroke="#666" stroke-width="2" fill="none"/><use xlink:href="#a" transform="matrix(1,0,0,1,30,1100) translate(134.05 23.6)"/><use xlink:href="#b" transform="matrix(1,0,0,1,25,1142.5) translate(10.75 17.1)"/><use xlink:href="#c" transform="matrix(1,0,0,1,137.66666666666666,1142.5) translate(11.574999999999996 17.1)"/><use xlink:href="#d" transform="matrix(1,0,0,1,240.54999999998836,1142.5) translate(43.05 17.1)"/><use xlink:href="#e" transform="matrix(1,0,0,1,25,1174.5) translate(10.574999999999996 17.1)"/><use xlink:href="#f" transform="matrix(1,0,0,1,137.66666666666666,1174.5) translate(13.049999999999997 17.1)"/><use xlink:href="#d" transform="matrix(1,0,0,1,240.54999999998836,1174.5) translate(43.05 17.1)"/><use xlink:href="#e" transform="matrix(1,0,0,1,25,1206.5) translate(10.574999999999996 17.1)"/><use xlink:href="#g" transform="matrix(1,0,0,1,137.66666666666666,1206.5) translate(18.574999999999996 17.1)"/><use xlink:href="#d" transform="matrix(1,0,0,1,240.54999999998836,1206.5) translate(43.05 17.1)"/><use xlink:href="#h" transform="matrix(1,0,0,1,137.66666666666666,1238.5) translate(23.025 17.1)"/><use xlink:href="#i" transform="matrix(1,0,0,1,240.54999999998836,1238.5) translate(43.05 17.1)"/><use xlink:href="#j" transform="matrix(1,0,0,1,137.66666666666666,1270.5) translate(5.524999999999999 17.1)"/><use xlink:href="#k" transform="matrix(1,0,0,1,240.54999999998836,1270.5) translate(18.924999999999997 17.1)"/><path d="M20 30a10 10 0 0 1 10-10h320a10 10 0 0 1 10 10v180a10 10 0 0 1-10 10H30a10 10 0 0 1-10-10z" fill="#fff"/><path d="M20 60h340v33H20z" fill="#fff"/><path d="M20 92h340v33H20z" fill="#fff"/><path d="M20 124h340v33H20z" fill="#fff"/><path d="M20 156h340v33H20z" fill="#fff"/><path d="M20 188h340v22a10 10 0 0 1-10 10H30a10 10 0 0 1-10-10z" fill="#fff"/><path d="M21 60h338H21zM20 30a10 10 0 0 1 10-10h320a10 10 0 0 1 10 10v180a10 10 0 0 1-10 10H30a10 10 0 0 1-10-10zM123 61v158zM235.55 61v158z" stroke="#666" stroke-width="2" fill="none"/><use xlink:href="#l" transform="matrix(1,0,0,1,30,20) translate(142.55 23.6)"/><use xlink:href="#b" transform="matrix(1,0,0,1,25,62.5) translate(5.75 17.1)"/><use xlink:href="#m" transform="matrix(1,0,0,1,127.99999999999999,62.5) translate(25.074999999999996 17.1)"/><use xlink:href="#d" transform="matrix(1,0,0,1,240.54999999998836,62.5) translate(43.05 17.1)"/><use xlink:href="#e" transform="matrix(1,0,0,1,25,94.5) translate(5.574999999999996 17.1)"/><use xlink:href="#n" transform="matrix(1,0,0,1,127.99999999999999,94.5) translate(23.574999999999996 17.1)"/><use xlink:href="#d" transform="matrix(1,0,0,1,240.54999999998836,94.5) translate(43.05 17.1)"/><use xlink:href="#e" transform="matrix(1,0,0,1,25,126.5) translate(5.574999999999996 17.1)"/><use xlink:href="#o" transform="matrix(1,0,0,1,127.99999999999999,126.5) translate(18.049999999999997 17.1)"/><use xlink:href="#d" transform="matrix(1,0,0,1,240.54999999998836,126.5) translate(43.05 17.1)"/><use xlink:href="#p" transform="matrix(1,0,0,1,127.99999999999999,158.5) translate(3.0749999999999957 17.1)"/><use xlink:href="#q" transform="matrix(1,0,0,1,240.54999999998836,158.5) translate(34.55 17.1)"/><use xlink:href="#r" transform="matrix(1,0,0,1,127.99999999999999,190.5) translate(2.049999999999997 17.1)"/><use xlink:href="#k" transform="matrix(1,0,0,1,240.54999999998836,190.5) translate(18.924999999999997 17.1)"/><path d="M1760 30a10 10 0 0 1 10-10h365a10 10 0 0 1 10 10v330a10 10 0 0 1-10 10h-365a10 10 0 0 1-10-10z" fill="#fff"/><path d="M1760 60h385v33h-385z" fill="#fff"/><path d="M1760 92h385v33h-385z" fill="#fff"/><path d="M1760 124h385v33h-385z" fill="#fff"/><path d="M1760 156h385v76h-385z" fill="#fff"/><path d="M1760 231h385v33h-385z" fill="#fff"/><path d="M1760 263h385v76h-385z" fill="#fff"/><path d="M1760 338h385v22a10 10 0 0 1-10 10h-365a10 10 0 0 1-10-10z" fill="#fff"/><path d="M1761 60h383-383zM1760 30a10 10 0 0 1 10-10h365a10 10 0 0 1 10 10v330a10 10 0 0 1-10 10h-365a10 10 0 0 1-10-10zM1869.92 61v308zM1998.05 61v308z" stroke="#666" stroke-width="2" fill="none"/><use xlink:href="#s" transform="matrix(1,0,0,1,1770,20) translate(138.1 23.6)"/><use xlink:href="#b" transform="matrix(1,0,0,1,1765,62.5) translate(9.25 17.1)"/><use xlink:href="#t" transform="matrix(1,0,0,1,1874.9241590433771,62.5) translate(6.124999999999993 17.1)"/><use xlink:href="#d" transform="matrix(1,0,0,1,2003.0499999999884,62.5) translate(54.05 17.1)"/><use xlink:href="#e" transform="matrix(1,0,0,1,1765,94.5) translate(9.074999999999996 17.1)"/><use xlink:href="#n" transform="matrix(1,0,0,1,1874.9241590433771,94.5) translate(31.574999999999996 17.1)"/><use xlink:href="#d" transform="matrix(1,0,0,1,2003.0499999999884,94.5) translate(54.05 17.1)"/><use xlink:href="#u" transform="matrix(1,0,0,1,1874.9241590433771,126.5) translate(23.025 17.1)"/><use xlink:href="#q" transform="matrix(1,0,0,1,2003.0499999999884,126.5) translate(45.55 17.1)"/><use xlink:href="#v" transform="matrix(1,0,0,1,1874.9241590433771,158.5) translate(40.025 38.6)"/><use xlink:href="#w" transform="matrix(1,0,0,1,2003.0499999999884,158.5) translate(4.724999999999987 17)"/><use xlink:href="#x" transform="matrix(1,0,0,1,2003.0499999999884,158.5) translate(21.67499999999999 38.6)"/><use xlink:href="#y" transform="matrix(1,0,0,1,2003.0499999999884,158.5) translate(33.224999999999994 60.2)"/><use xlink:href="#z" transform="matrix(1,0,0,1,1874.9241590433771,233.5) translate(10.549999999999997 17.1)"/><use xlink:href="#k" transform="matrix(1,0,0,1,2003.0499999999884,233.5) translate(29.924999999999997 17.1)"/><use xlink:href="#A" transform="matrix(1,0,0,1,1874.9241590433771,265.5) translate(38.025 38.6)"/><use xlink:href="#B" transform="matrix(1,0,0,1,2003.0499999999884,265.5) translate(25.025 17)"/><use xlink:href="#C" transform="matrix(1,0,0,1,2003.0499999999884,265.5) translate(28.949999999999996 38.6)"/><use xlink:href="#D" transform="matrix(1,0,0,1,2003.0499999999884,265.5) translate(40.525 60.2)"/><use xlink:href="#E" transform="matrix(1,0,0,1,1874.9241590433771,340.5) translate(43.025 17.1)"/><use xlink:href="#q" transform="matrix(1,0,0,1,2003.0499999999884,340.5) translate(45.55 17.1)"/><path d="M1326.75 716H1385a5 5 0 0 0 5-5v-89.97a5 5 0 0 0-5-5H735a5 5 0 0 1-5-5V333a5 5 0 0 1 5-5h175.18M1306.75 716h20m0 10v-20M928.55 328h-20m20-10l-20 10m20 10l-20-10M1326.75 716H1495a5 5 0 0 1 5 5v494a5 5 0 0 0 5 5h255.18M1306.75 716h20m0 10v-20M1778.55 1220h-20m20-10l-20 10m20 10l-20-10" stroke="#999" stroke-width="2" fill="none"/><path d="M61 570a10 10 0 0 1 10-10h259a10 10 0 0 1 10 10v84a10 10 0 0 1-10 10H71a10 10 0 0 1-10-10z" fill="#fff"/><path d="M61 600h279v33H61z" fill="#fff"/><path d="M61 632h279v22a10 10 0 0 1-10 10H71a10 10 0 0 1-10-10z" fill="#fff"/><path d="M62 600h277H62zM61 570a10 10 0 0 1 10-10h259a10 10 0 0 1 10 10v84a10 10 0 0 1-10 10H71a10 10 0 0 1-10-10zM162.83 601v62zM246.05 601v62z" stroke="#666" stroke-width="2" fill="none"/><use xlink:href="#F" transform="matrix(1,0,0,1,71,560) translate(104.525 23.6)"/><use xlink:href="#b" transform="matrix(1,0,0,1,66,602.5) translate(5.25 17.1)"/><use xlink:href="#G" transform="matrix(1,0,0,1,167.83333333333331,602.5) translate(3.049999999999997 17.1)"/><use xlink:href="#d" transform="matrix(1,0,0,1,251.04999999998836,602.5) translate(27.549999999999997 17.1)"/><use xlink:href="#F" transform="matrix(1,0,0,1,167.83333333333331,634.5) translate(12.024999999999999 17.1)"/><use xlink:href="#H" transform="matrix(1,0,0,1,251.04999999998836,634.5) translate(19.049999999999997 17.1)"/><path d="M61 735a10 10 0 0 1 10-10h259a10 10 0 0 1 10 10v126a10 10 0 0 1-10 10H71a10 10 0 0 1-10-10z" fill="#fff"/><path d="M61 765h279v54H61z" fill="#fff"/><path d="M61 818h279v43a10 10 0 0 1-10 10H71a10 10 0 0 1-10-10z" fill="#fff"/><path d="M62 765h277H62zM61 735a10 10 0 0 1 10-10h259a10 10 0 0 1 10 10v126a10 10 0 0 1-10 10H71a10 10 0 0 1-10-10zM163.5 766v104zM246.05 766v104z" stroke="#666" stroke-width="2" fill="none"/><use xlink:href="#I" transform="matrix(1,0,0,1,71,725) translate(80.05 23.6)"/><use xlink:href="#J" transform="matrix(1,0,0,1,66,767.5) translate(24.525 16.799999999999997)"/><use xlink:href="#K" transform="matrix(1,0,0,1,66,767.5) translate(5.75 38.4)"/><use xlink:href="#o" transform="matrix(1,0,0,1,168.5,767.5) translate(3.049999999999997 27.6)"/><use xlink:href="#d" transform="matrix(1,0,0,1,251.04999999998836,767.5) translate(27.549999999999997 27.6)"/><use xlink:href="#J" transform="matrix(1,0,0,1,66,820.5) translate(24.525 16.799999999999997)"/><use xlink:href="#K" transform="matrix(1,0,0,1,66,820.5) translate(5.75 38.4)"/><use xlink:href="#G" transform="matrix(1,0,0,1,168.5,820.5) translate(2.549999999999997 27.6)"/><use xlink:href="#d" transform="matrix(1,0,0,1,251.04999999998836,820.5) translate(27.549999999999997 27.6)"/><path d="M1780 1110a10 10 0 0 1 10-10h345a10 10 0 0 1 10 10v212a10 10 0 0 1-10 10h-345a10 10 0 0 1-10-10z" fill="#fff"/><path d="M1780 1140h365v33h-365z" fill="#fff"/><path d="M1780 1172h365v33h-365z" fill="#fff"/><path d="M1780 1204h365v33h-365z" fill="#fff"/><path d="M1780 1236h365v33h-365z" fill="#fff"/><path d="M1780 1268h365v33h-365z" fill="#fff"/><path d="M1780 1300h365v22a10 10 0 0 1-10 10h-345a10 10 0 0 1-10-10z" fill="#fff"/><path d="M1781 1140h363-363zM1780 1110a10 10 0 0 1 10-10h345a10 10 0 0 1 10 10v212a10 10 0 0 1-10 10h-345a10 10 0 0 1-10-10zM1866.42 1141v190zM2008.05 1141v190z" stroke="#666" stroke-width="2" fill="none"/><use xlink:href="#L" transform="matrix(1,0,0,1,1790,1100) translate(129.075 23.6)"/><use xlink:href="#b" transform="matrix(1,0,0,1,1785,1142.5) translate(-2.25 17.1)"/><use xlink:href="#M" transform="matrix(1,0,0,1,1871.424632775586,1142.5) translate(18.099999999999994 17.1)"/><use xlink:href="#d" transform="matrix(1,0,0,1,2013.0499999999884,1142.5) translate(49.05 17.1)"/><use xlink:href="#e" transform="matrix(1,0,0,1,1785,1174.5) translate(-2.4250000000000043 17.1)"/><use xlink:href="#f" transform="matrix(1,0,0,1,1871.424632775586,1174.5) translate(32.55 17.1)"/><use xlink:href="#d" transform="matrix(1,0,0,1,2013.0499999999884,1174.5) translate(49.05 17.1)"/><use xlink:href="#e" transform="matrix(1,0,0,1,1785,1206.5) translate(-2.4250000000000043 17.1)"/><use xlink:href="#g" transform="matrix(1,0,0,1,1871.424632775586,1206.5) translate(38.074999999999996 17.1)"/><use xlink:href="#d" transform="matrix(1,0,0,1,2013.0499999999884,1206.5) translate(49.05 17.1)"/><use xlink:href="#N" transform="matrix(1,0,0,1,1871.424632775586,1238.5) translate(34.525 17.1)"/><use xlink:href="#O" transform="matrix(1,0,0,1,2013.0499999999884,1238.5) translate(47.025 17.1)"/><use xlink:href="#z" transform="matrix(1,0,0,1,1871.424632775586,1270.5) translate(17.049999999999997 17.1)"/><use xlink:href="#k" transform="matrix(1,0,0,1,2013.0499999999884,1270.5) translate(24.924999999999997 17.1)"/><use xlink:href="#P" transform="matrix(1,0,0,1,1871.424632775586,1302.5) translate(23.525 17.1)"/><use xlink:href="#k" transform="matrix(1,0,0,1,2013.0499999999884,1302.5) translate(24.924999999999997 17.1)"/><path d="M1860 570a10 10 0 0 1 10-10h240a10 10 0 0 1 10 10v84a10 10 0 0 1-10 10h-240a10 10 0 0 1-10-10z" fill="#fff"/><path d="M1860 600h260v33h-260z" fill="#fff"/><path d="M1860 632h260v22a10 10 0 0 1-10 10h-240a10 10 0 0 1-10-10z" fill="#fff"/><path d="M1861 600h258-258zM1860 570a10 10 0 0 1 10-10h240a10 10 0 0 1 10 10v84a10 10 0 0 1-10 10h-240a10 10 0 0 1-10-10zM1960.7 601v62zM2035.55 601v62z" stroke="#666" stroke-width="2" fill="none"/><use xlink:href="#Q" transform="matrix(1,0,0,1,1870,560) translate(105.525 23.6)"/><use xlink:href="#b" transform="matrix(1,0,0,1,1865,602.5) translate(4.75 17.1)"/><use xlink:href="#R" transform="matrix(1,0,0,1,1965.712638880514,602.5) translate(9.049999999999997 17.1)"/><use xlink:href="#d" transform="matrix(1,0,0,1,2040.5499999999884,602.5) translate(23.049999999999997 17.1)"/><use xlink:href="#S" transform="matrix(1,0,0,1,1965.712638880514,634.5) translate(8.549999999999997 17.1)"/><use xlink:href="#H" transform="matrix(1,0,0,1,2040.5499999999884,634.5) translate(14.549999999999997 17.1)"/><path d="M1860 735a10 10 0 0 1 10-10h240a10 10 0 0 1 10 10v126a10 10 0 0 1-10 10h-240a10 10 0 0 1-10-10z" fill="#fff"/><path d="M1860 765h260v54h-260z" fill="#fff"/><path d="M1860 818h260v43a10 10 0 0 1-10 10h-240a10 10 0 0 1-10-10z" fill="#fff"/><path d="M1861 765h258-258zM1860 735a10 10 0 0 1 10-10h240a10 10 0 0 1 10 10v126a10 10 0 0 1-10 10h-240a10 10 0 0 1-10-10zM1960.7 766v104zM2035.55 766v104z" stroke="#666" stroke-width="2" fill="none"/><use xlink:href="#T" transform="matrix(1,0,0,1,1870,725) translate(81.05 23.6)"/><use xlink:href="#J" transform="matrix(1,0,0,1,1865,767.5) translate(23.525 16.799999999999997)"/><use xlink:href="#K" transform="matrix(1,0,0,1,1865,767.5) translate(4.75 38.4)"/><use xlink:href="#f" transform="matrix(1,0,0,1,1965.712638880514,767.5) translate(-0.9500000000000028 27.6)"/><use xlink:href="#d" transform="matrix(1,0,0,1,2040.5499999999884,767.5) translate(23.049999999999997 27.6)"/><use xlink:href="#U" transform="matrix(1,0,0,1,1865,820.5) translate(23.525 16.799999999999997)"/><use xlink:href="#V" transform="matrix(1,0,0,1,1865,820.5) translate(4.75 38.4)"/><use xlink:href="#R" transform="matrix(1,0,0,1,1965.712638880514,820.5) translate(9.049999999999997 27.6)"/><use xlink:href="#d" transform="matrix(1,0,0,1,2040.5499999999884,820.5) translate(23.049999999999997 27.6)"/><path d="M1326.75 716H1495a5 5 0 0 0 5-5V113a5 5 0 0 0-5-5H379.82M1306.75 716h20m0 10v-20M361.45 108h20m-20 10l20-10m-20-10l20 10" stroke="#999" stroke-width="2" fill="none"/><path d="M1326.75 716H1495a5 5 0 0 0 5-5V112.55a5 5 0 0 1 5-5h235.18M1306.75 716h20m0 10v-20M1758.55 107.55h-20m20-10l-20 10m20 10l-20-10" stroke="#999" stroke-width="2" fill="none"/><path d="M1326.75 716H1495a5 5 0 0 1 5 5v494.12a5 5 0 0 1-5 5H379.82M1306.75 716h20m0 10v-20M361.45 1220.12h20m-20 10l20-10m-20-10l20 10" stroke="#999" stroke-width="2" fill="none"/><path d="M910.18 296H705a5 5 0 0 0-5 5v777.03a5 5 0 0 0 5 5h242.68M928.55 296h-20m20-10l-20 10m20 10l-20-10M966.05 1083.03h-20m20-10l-20 10m20 10l-20-10M1760.18 1188H1645a5 5 0 0 1-5-5V301a5 5 0 0 0-5-5h-304M1778.55 1188h-20m20-10l-20 10m20 10l-20-10M1311 296h20m0 10v-20" stroke="#999" stroke-width="2" fill="none"/><path d="M1331 296h54a5 5 0 0 0 5-5V145.12a5 5 0 0 0-5-5H401.06a.06.06 0 0 1-.06-.06.06.06 0 0 0-.06-.06h-21.12M1311 296h20m0 10v-20M361.45 140h20m-20 10l20-10m-20-10l20 10" stroke="#999" stroke-width="2" fill="none"/><path d="M1331 296h54a5 5 0 0 0 5-5V145.12a5 5 0 0 0-5-5H525a5 5 0 0 0-5 5v1037.8a5 5 0 0 1-5 5H379.82M1311 296h20m0 10v-20M361.45 1187.93h20m-20 10l20-10m-20-10l20 10" stroke="#999" stroke-width="2" fill="none"/><path d="M914.43 716H735a5 5 0 0 0-5 5v324.82a5 5 0 0 0 5 5h212.68M932.8 716h-20m20-10l-20 10m20 10l-20-10M966.05 1050.82h-20m20-10l-20 10m20 10l-20-10M1331 296h54a5 5 0 0 0 5-5V145.12a5 5 0 0 0-5-5H525a5 5 0 0 0-5 5v641.33a5 5 0 0 1-5 5H359.82M1311 296h20m0 10v-20M341.45 791.45h20m-20 10l20-10m-20-10l20 10" stroke="#999" stroke-width="2" fill="none"/><path d="M930 250a10 10 0 0 1 10-10h360a10 10 0 0 1 10 10v308a10 10 0 0 1-10 10H940a10 10 0 0 1-10-10z" fill="#fff"/><path d="M930 280h380v33H930z" fill="#fff"/><path d="M930 312h380v33H930z" fill="#fff"/><path d="M930 344h380v33H930z" fill="#fff"/><path d="M930 376h380v33H930z" fill="#fff"/><path d="M930 408h380v33H930z" fill="#fff"/><path d="M930 440h380v33H930z" fill="#fff"/><path d="M930 472h380v33H930z" fill="#fff"/><path d="M930 504h380v33H930z" fill="#fff"/><path d="M930 536h380v22a10 10 0 0 1-10 10H940a10 10 0 0 1-10-10z" fill="#fff"/><path d="M931 280h378-378zM930 250a10 10 0 0 1 10-10h360a10 10 0 0 1 10 10v308a10 10 0 0 1-10 10H940a10 10 0 0 1-10-10zM1031.26 281v286zM1165.55 281v286z" stroke="#666" stroke-width="2" fill="none"/><use xlink:href="#W" transform="matrix(1,0,0,1,940,240) translate(155.525 23.6)"/><use xlink:href="#b" transform="matrix(1,0,0,1,935,282.5) translate(5.25 17.1)"/><use xlink:href="#o" transform="matrix(1,0,0,1,1036.2560113929028,282.5) translate(29.049999999999997 17.1)"/><use xlink:href="#d" transform="matrix(1,0,0,1,1170.5499999999884,282.5) translate(53.05 17.1)"/><use xlink:href="#e" transform="matrix(1,0,0,1,935,314.5) translate(5.074999999999996 17.1)"/><use xlink:href="#X" transform="matrix(1,0,0,1,1036.2560113929028,314.5) translate(11.549999999999997 17.1)"/><use xlink:href="#d" transform="matrix(1,0,0,1,1170.5499999999884,314.5) translate(53.05 17.1)"/><use xlink:href="#Y" transform="matrix(1,0,0,1,1036.2560113929028,346.5) translate(45.9 17.1)"/><use xlink:href="#H" transform="matrix(1,0,0,1,1170.5499999999884,346.5) translate(44.55 17.1)"/><use xlink:href="#Z" transform="matrix(1,0,0,1,1036.2560113929028,378.5) translate(37.525 17.1)"/><use xlink:href="#aa" transform="matrix(1,0,0,1,1170.5499999999884,378.5) translate(3.325000000000003 17.1)"/><use xlink:href="#ab" transform="matrix(1,0,0,1,1036.2560113929028,410.5) translate(17.599999999999994 17.1)"/><use xlink:href="#q" transform="matrix(1,0,0,1,1170.5499999999884,410.5) translate(44.55 17.1)"/><use xlink:href="#ac" transform="matrix(1,0,0,1,1036.2560113929028,442.5) translate(10.574999999999996 17.1)"/><use xlink:href="#ad" transform="matrix(1,0,0,1,1170.5499999999884,442.5) translate(48.525 17.1)"/><use xlink:href="#ae" transform="matrix(1,0,0,1,1036.2560113929028,474.5) translate(21.574999999999996 17.1)"/><use xlink:href="#q" transform="matrix(1,0,0,1,1170.5499999999884,474.5) translate(44.55 17.1)"/><use xlink:href="#af" transform="matrix(1,0,0,1,1036.2560113929028,506.5) translate(3.25 17.1)"/><use xlink:href="#ag" transform="matrix(1,0,0,1,1170.5499999999884,506.5) translate(9.124999999999993 17.1)"/><use xlink:href="#ah" transform="matrix(1,0,0,1,1036.2560113929028,538.5) translate(29.074999999999996 17.1)"/><use xlink:href="#q" transform="matrix(1,0,0,1,1170.5499999999884,538.5) translate(44.55 17.1)"/><path d="M967.5 1005a10 10 0 0 1 10-10h285a10 10 0 0 1 10 10v148a10 10 0 0 1-10 10h-285a10 10 0 0 1-10-10z" fill="#fff"/><path d="M967.5 1035h305v33h-305z" fill="#fff"/><path d="M967.5 1067h305v33h-305z" fill="#fff"/><path d="M967.5 1099h305v33h-305z" fill="#fff"/><path d="M967.5 1131h305v22a10 10 0 0 1-10 10h-285a10 10 0 0 1-10-10z" fill="#fff"/><path d="M968.5 1035h303-303zM967.5 1005a10 10 0 0 1 10-10h285a10 10 0 0 1 10 10v148a10 10 0 0 1-10 10h-285a10 10 0 0 1-10-10zM1060.33 1036v126zM1165.55 1036v126z" stroke="#666" stroke-width="2" fill="none"/><use xlink:href="#ai" transform="matrix(1,0,0,1,977.5,995) translate(111.6 23.6)"/><use xlink:href="#e" transform="matrix(1,0,0,1,972.5,1037.5) translate(0.5749999999999957 17.1)"/><use xlink:href="#n" transform="matrix(1,0,0,1,1065.3333333333333,1037.5) translate(20.074999999999996 17.1)"/><use xlink:href="#d" transform="matrix(1,0,0,1,1170.5499999999884,1037.5) translate(34.05 17.1)"/><use xlink:href="#e" transform="matrix(1,0,0,1,972.5,1069.5) translate(0.5749999999999957 17.1)"/><use xlink:href="#o" transform="matrix(1,0,0,1,1065.3333333333333,1069.5) translate(14.549999999999997 17.1)"/><use xlink:href="#d" transform="matrix(1,0,0,1,1170.5499999999884,1069.5) translate(34.05 17.1)"/><use xlink:href="#aj" transform="matrix(1,0,0,1,1065.3333333333333,1101.5) translate(25.049999999999997 17.1)"/><use xlink:href="#d" transform="matrix(1,0,0,1,1170.5499999999884,1101.5) translate(34.05 17.1)"/><use xlink:href="#ak" transform="matrix(1,0,0,1,1065.3333333333333,1133.5) translate(5 17.1)"/><use xlink:href="#k" transform="matrix(1,0,0,1,1170.5499999999884,1133.5) translate(9.924999999999997 17.1)"/><path d="M934.25 670a10 10 0 0 1 10-10h351.5a10 10 0 0 1 10 10v223a10 10 0 0 1-10 10h-351.5a10 10 0 0 1-10-10z" fill="#fff"/><path d="M934.25 700h371.5v33h-371.5z" fill="#fff"/><path d="M934.25 732h371.5v33h-371.5z" fill="#fff"/><path d="M934.25 764h371.5v33h-371.5z" fill="#fff"/><path d="M934.25 796h371.5v33h-371.5z" fill="#fff"/><path d="M934.25 828h371.5v65a10 10 0 0 1-10 10h-351.5a10 10 0 0 1-10-10z" fill="#fff"/><path d="M935.25 700h369.5-369.5zM934.25 670a10 10 0 0 1 10-10h351.5a10 10 0 0 1 10 10v223a10 10 0 0 1-10 10h-351.5a10 10 0 0 1-10-10zM1046.92 701v201zM1165.55 701v201z" stroke="#666" stroke-width="2" fill="none"/><use xlink:href="#al" transform="matrix(1,0,0,1,944.25,660) translate(157.05 23.6)"/><use xlink:href="#b" transform="matrix(1,0,0,1,939.25,702.5) translate(10.75 17.1)"/><use xlink:href="#n" transform="matrix(1,0,0,1,1051.9166666666665,702.5) translate(26.574999999999996 17.1)"/><use xlink:href="#d" transform="matrix(1,0,0,1,1170.5499999999884,702.5) translate(51.05 17.1)"/><use xlink:href="#am" transform="matrix(1,0,0,1,939.25,734.5) translate(16.574999999999996 17.1)"/><use xlink:href="#an" transform="matrix(1,0,0,1,1051.9166666666665,734.5) translate(13.074999999999996 17.1)"/><use xlink:href="#H" transform="matrix(1,0,0,1,1170.5499999999884,734.5) translate(42.55 17.1)"/><use xlink:href="#ao" transform="matrix(1,0,0,1,1051.9166666666665,766.5) translate(15.049999999999997 17.1)"/><use xlink:href="#H" transform="matrix(1,0,0,1,1170.5499999999884,766.5) translate(42.55 17.1)"/><use xlink:href="#am" transform="matrix(1,0,0,1,939.25,798.5) translate(16.574999999999996 17.1)"/><use xlink:href="#ap" transform="matrix(1,0,0,1,1051.9166666666665,798.5) translate(32.074999999999996 17.1)"/><use xlink:href="#q" transform="matrix(1,0,0,1,1170.5499999999884,798.5) translate(42.55 17.1)"/><use xlink:href="#aq" transform="matrix(1,0,0,1,1051.9166666666665,830.5) translate(36.05 38.6)"/><use xlink:href="#ar" transform="matrix(1,0,0,1,1170.5499999999884,830.5) translate(5.749999999999986 17)"/><use xlink:href="#x" transform="matrix(1,0,0,1,1170.5499999999884,830.5) translate(18.67499999999999 38.6)"/><use xlink:href="#as" transform="matrix(1,0,0,1,1170.5499999999884,830.5) translate(41.65 60.2)"/><path d="M1331 296h304a5 5 0 0 1 5 5v485.45a5 5 0 0 0 5 5h195.18M1311 296h20m0 10v-20M1858.55 791.45h-20m20-10l-20 10m20 10l-20-10M40 616.03H25a5 5 0 0 0-5 5v222.5a5 5 0 0 0 5 5h16.18M60 616.03H40m0-10v20M59.55 848.54h-20m20-10l-20 10m20 10l-20-10M2141 616.03h15a5 5 0 0 1 5 5v222.5a5 5 0 0 1-5 5h-16.18M2121 616.03h20m0 10v-20M2121.45 848.54h20m-20 10l20-10m-20-10l20 10" stroke="#999" stroke-width="2" fill="none"/><path d="M700 1250a10 10 0 0 1 10-10h820a10 10 0 0 1 10 10v148a10 10 0 0 1-10 10H710a10 10 0 0 1-10-10z" fill="#fff"/><path d="M700 1250a10 10 0 0 1 10-10h820a10 10 0 0 1 10 10v30H700z" stroke="#666" stroke-width="2" fill="#ccc"/><path d="M700 1280h840v33H700z" fill="#fff"/><path d="M700 1312h840v33H700z" fill="#fff"/><path d="M700 1344h840v33H700z" fill="#fff"/><path d="M700 1376h840v22a10 10 0 0 1-10 10H710a10 10 0 0 1-10-10z" fill="#fff"/><path d="M701 1280h838-838zM700 1250a10 10 0 0 1 10-10h820a10 10 0 0 1 10 10v148a10 10 0 0 1-10 10H710a10 10 0 0 1-10-10zM760 1281v126zM901 1281v126z" stroke="#666" stroke-width="2" fill="none"/><use xlink:href="#at" transform="matrix(1,0,0,1,710,1240) translate(351.6 23.6)"/><use xlink:href="#au" transform="matrix(1,0,0,1,710,1240) translate(394.5 23.6)"/><use xlink:href="#av" transform="matrix(1,0,0,1,705,1282.5) translate(9.5 17.1)"/><use xlink:href="#aw" transform="matrix(1,0,0,1,765,1282.5) translate(24.75 17.1)"/><g><use xlink:href="#ax" transform="matrix(1,0,0,1,905.9999999999999,1282.5) translate(209.225 17.1)"/><use xlink:href="#ay" transform="matrix(1,0,0,1,905.9999999999999,1282.5) translate(327.975 17.1)"/><use xlink:href="#az" transform="matrix(1,0,0,1,905.9999999999999,1282.5) translate(392.775 17.1)"/></g><g><use xlink:href="#av" transform="matrix(1,0,0,1,705,1314.5) translate(9.5 17.1)"/></g><g><use xlink:href="#aA" transform="matrix(1,0,0,1,765,1314.5) translate(0.2750000000000057 17.1)"/><use xlink:href="#V" transform="matrix(1,0,0,1,765,1314.5) translate(49.22500000000001 17.1)"/></g><g><use xlink:href="#aB" transform="matrix(1,0,0,1,905.9999999999999,1314.5) translate(115.39999999999998 17.1)"/><use xlink:href="#ay" transform="matrix(1,0,0,1,905.9999999999999,1314.5) translate(206.25 17.1)"/><use xlink:href="#aC" transform="matrix(1,0,0,1,905.9999999999999,1314.5) translate(271.05 17.1)"/><use xlink:href="#aD" transform="matrix(1,0,0,1,905.9999999999999,1314.5) translate(304.05 17.1)"/><use xlink:href="#aE" transform="matrix(1,0,0,1,905.9999999999999,1314.5) translate(416.70000000000005 17.1)"/></g><g><use xlink:href="#av" transform="matrix(1,0,0,1,705,1346.5) translate(9.5 17.1)"/></g><g><use xlink:href="#aF" transform="matrix(1,0,0,1,765,1346.5) translate(24.574999999999996 17.1)"/></g><g><use xlink:href="#aG" transform="matrix(1,0,0,1,905.9999999999999,1346.5) translate(219.675 17.1)"/><use xlink:href="#aC" transform="matrix(1,0,0,1,905.9999999999999,1346.5) translate(285.52500000000003 17.1)"/><use xlink:href="#aH" transform="matrix(1,0,0,1,905.9999999999999,1346.5) translate(318.52500000000003 17.1)"/></g><g><use xlink:href="#av" transform="matrix(1,0,0,1,705,1378.5) translate(9.5 17.1)"/></g><g><use xlink:href="#am" transform="matrix(1,0,0,1,765,1378.5) translate(30.574999999999996 17.1)"/></g><g><use xlink:href="#aI" transform="matrix(1,0,0,1,905.9999999999999,1378.5) translate(246.575 17.1)"/><use xlink:href="#aJ" transform="matrix(1,0,0,1,905.9999999999999,1378.5) translate(305.525 17.1)"/></g><defs><path d="M233-177c-1 41-23 64-60 70L243 0h-38l-65-103H63V0H30v-248c88 3 205-21 203 71zM63-129c60-2 137 13 137-47 0-61-80-42-137-45v92" id="aK"/><path d="M141-36C126-15 110 5 73 4 37 3 15-17 15-53c-1-64 63-63 125-63 3-35-9-54-41-54-24 1-41 7-42 31l-33-3c5-37 33-52 76-52 45 0 72 20 72 64v82c-1 20 7 32 28 27v20c-31 9-61-2-59-35zM48-53c0 20 12 33 32 33 41-3 63-29 60-74-43 2-92-5-92 41" id="aL"/><path d="M59-47c-2 24 18 29 38 22v24C64 9 27 4 27-40v-127H5v-23h24l9-43h21v43h35v23H59v120" id="aM"/><path d="M24-231v-30h32v30H24zM24 0v-190h32V0H24" id="aN"/><path d="M117-194c89-4 53 116 60 194h-32v-121c0-31-8-49-39-48C34-167 62-67 57 0H25l-1-190h30c1 10-1 24 2 32 11-22 29-35 61-36" id="aO"/><path d="M177-190C167-65 218 103 67 71c-23-6-38-20-44-43l32-5c15 47 100 32 89-28v-30C133-14 115 1 83 1 29 1 15-40 15-95c0-56 16-97 71-98 29-1 48 16 59 35 1-10 0-23 2-32h30zM94-22c36 0 50-32 50-73 0-42-14-75-50-75-39 0-46 34-46 75s6 73 46 73" id="aP"/><g id="a"><use transform="matrix(0.05,0,0,0.05,0,0)" xlink:href="#aK"/><use transform="matrix(0.05,0,0,0.05,12.950000000000001,0)" xlink:href="#aL"/><use transform="matrix(0.05,0,0,0.05,22.950000000000003,0)" xlink:href="#aM"/><use transform="matrix(0.05,0,0,0.05,27.950000000000003,0)" xlink:href="#aN"/><use transform="matrix(0.05,0,0,0.05,31.900000000000002,0)" xlink:href="#aO"/><use transform="matrix(0.05,0,0,0.05,41.900000000000006,0)" xlink:href="#aP"/></g><path d="M30-248c87 1 191-15 191 75 0 78-77 80-158 76V0H30v-248zm33 125c57 0 124 11 124-50 0-59-68-47-124-48v98" id="aQ"/><path d="M33 0v-248h34V0H33" id="aR"/><path d="M240 0l2-218c-23 76-54 145-80 218h-23L58-218 59 0H30v-248h44l77 211c21-75 51-140 76-211h43V0h-30" id="aS"/><path d="M205 0l-28-72H64L36 0H1l101-248h38L239 0h-34zm-38-99l-47-123c-12 45-31 82-46 123h93" id="aT"/><path d="M137-103V0h-34v-103L8-248h37l75 118 75-118h37" id="aU"/><g id="b"><use transform="matrix(0.05,0,0,0.05,0,0)" xlink:href="#aQ"/><use transform="matrix(0.05,0,0,0.05,12,0)" xlink:href="#aK"/><use transform="matrix(0.05,0,0,0.05,24.950000000000003,0)" xlink:href="#aR"/><use transform="matrix(0.05,0,0,0.05,29.950000000000003,0)" xlink:href="#aS"/><use transform="matrix(0.05,0,0,0.05,44.900000000000006,0)" xlink:href="#aT"/><use transform="matrix(0.05,0,0,0.05,56.900000000000006,0)" xlink:href="#aK"/><use transform="matrix(0.05,0,0,0.05,69.5,0)" xlink:href="#aU"/></g><path d="M30-248c118-7 216 8 213 122C240-48 200 0 122 0H30v-248zM63-27c89 8 146-16 146-99s-60-101-146-95v194" id="aV"/><g id="c"><use transform="matrix(0.05,0,0,0.05,0,0)" xlink:href="#aK"/><use transform="matrix(0.05,0,0,0.05,12.950000000000001,0)" xlink:href="#aL"/><use transform="matrix(0.05,0,0,0.05,22.950000000000003,0)" xlink:href="#aM"/><use transform="matrix(0.05,0,0,0.05,27.950000000000003,0)" xlink:href="#aN"/><use transform="matrix(0.05,0,0,0.05,31.900000000000002,0)" xlink:href="#aO"/><use transform="matrix(0.05,0,0,0.05,41.900000000000006,0)" xlink:href="#aP"/><use transform="matrix(0.05,0,0,0.05,51.900000000000006,0)" xlink:href="#aR"/><use transform="matrix(0.05,0,0,0.05,56.900000000000006,0)" xlink:href="#aV"/></g><path d="M190 0L58-211 59 0H30v-248h39L202-35l-2-213h31V0h-41" id="aW"/><path d="M127-220V0H93v-220H8v-28h204v28h-85" id="aX"/><g id="d"><use transform="matrix(0.05,0,0,0.05,0,0)" xlink:href="#aR"/><use transform="matrix(0.05,0,0,0.05,5,0)" xlink:href="#aW"/><use transform="matrix(0.05,0,0,0.05,17.950000000000003,0)" xlink:href="#aX"/></g><path d="M63-220v92h138v28H63V0H30v-248h175v28H63" id="aY"/><path d="M140-251c81 0 123 46 123 126C263-46 219 4 140 4 59 4 17-45 17-125s42-126 123-126zm0 227c63 0 89-41 89-101s-29-99-89-99c-61 0-89 39-89 99S79-25 140-24" id="aZ"/><path d="M30 0v-248h187v28H63v79h144v27H63v87h162V0H30" id="ba"/><path d="M143 4C61 4 22-44 18-125c-5-107 100-154 193-111 17 8 29 25 37 43l-32 9c-13-25-37-40-76-40-61 0-88 39-88 99 0 61 29 100 91 101 35 0 62-11 79-27v-45h-74v-28h105v86C228-13 192 4 143 4" id="bb"/><g id="e"><use transform="matrix(0.05,0,0,0.05,0,0)" xlink:href="#aY"/><use transform="matrix(0.05,0,0,0.05,10.950000000000001,0)" xlink:href="#aZ"/><use transform="matrix(0.05,0,0,0.05,24.950000000000003,0)" xlink:href="#aK"/><use transform="matrix(0.05,0,0,0.05,37.900000000000006,0)" xlink:href="#ba"/><use transform="matrix(0.05,0,0,0.05,49.900000000000006,0)" xlink:href="#aR"/><use transform="matrix(0.05,0,0,0.05,54.900000000000006,0)" xlink:href="#bb"/><use transform="matrix(0.05,0,0,0.05,68.9,0)" xlink:href="#aW"/></g><path d="M210-169c-67 3-38 105-44 169h-31v-121c0-29-5-50-35-48C34-165 62-65 56 0H25l-1-190h30c1 10-1 24 2 32 10-44 99-50 107 0 11-21 27-35 58-36 85-2 47 119 55 194h-31v-121c0-29-5-49-35-48" id="bc"/><path d="M100-194c63 0 86 42 84 106H49c0 40 14 67 53 68 26 1 43-12 49-29l28 8c-11 28-37 45-77 45C44 4 14-33 15-96c1-61 26-98 85-98zm52 81c6-60-76-77-97-28-3 7-6 17-6 28h103" id="bd"/><g id="f"><use transform="matrix(0.05,0,0,0.05,0,0)" xlink:href="#bb"/><use transform="matrix(0.05,0,0,0.05,14,0)" xlink:href="#aL"/><use transform="matrix(0.05,0,0,0.05,24,0)" xlink:href="#bc"/><use transform="matrix(0.05,0,0,0.05,38.95,0)" xlink:href="#bd"/><use transform="matrix(0.05,0,0,0.05,48.95,0)" xlink:href="#aR"/><use transform="matrix(0.05,0,0,0.05,53.95,0)" xlink:href="#aV"/></g><path d="M232-93c-1 65-40 97-104 97C67 4 28-28 28-90v-158h33c8 89-33 224 67 224 102 0 64-133 71-224h33v155" id="be"/><path d="M135-143c-3-34-86-38-87 0 15 53 115 12 119 90S17 21 10-45l28-5c4 36 97 45 98 0-10-56-113-15-118-90-4-57 82-63 122-42 12 7 21 19 24 35" id="bf"/><path d="M114-163C36-179 61-72 57 0H25l-1-190h30c1 12-1 29 2 39 6-27 23-49 58-41v29" id="bg"/><g id="g"><use transform="matrix(0.05,0,0,0.05,0,0)" xlink:href="#be"/><use transform="matrix(0.05,0,0,0.05,12.950000000000001,0)" xlink:href="#bf"/><use transform="matrix(0.05,0,0,0.05,21.950000000000003,0)" xlink:href="#bd"/><use transform="matrix(0.05,0,0,0.05,31.950000000000003,0)" xlink:href="#bg"/><use transform="matrix(0.05,0,0,0.05,37.900000000000006,0)" xlink:href="#aR"/><use transform="matrix(0.05,0,0,0.05,42.900000000000006,0)" xlink:href="#aV"/></g><path d="M185-189c-5-48-123-54-124 2 14 75 158 14 163 119 3 78-121 87-175 55-17-10-28-26-33-46l33-7c5 56 141 63 141-1 0-78-155-14-162-118-5-82 145-84 179-34 5 7 8 16 11 25" id="bh"/><path d="M96-169c-40 0-48 33-48 73s9 75 48 75c24 0 41-14 43-38l32 2c-6 37-31 61-74 61-59 0-76-41-82-99-10-93 101-131 147-64 4 7 5 14 7 22l-32 3c-4-21-16-35-41-35" id="bi"/><path d="M100-194c62-1 85 37 85 99 1 63-27 99-86 99S16-35 15-95c0-66 28-99 85-99zM99-20c44 1 53-31 53-75 0-43-8-75-51-75s-53 32-53 75 10 74 51 75" id="bj"/><g id="h"><use transform="matrix(0.05,0,0,0.05,0,0)" xlink:href="#bh"/><use transform="matrix(0.05,0,0,0.05,12,0)" xlink:href="#bi"/><use transform="matrix(0.05,0,0,0.05,21,0)" xlink:href="#bj"/><use transform="matrix(0.05,0,0,0.05,31,0)" xlink:href="#bg"/><use transform="matrix(0.05,0,0,0.05,36.95,0)" xlink:href="#bd"/></g><g id="i"><use transform="matrix(0.05,0,0,0.05,0,0)" xlink:href="#aR"/><use transform="matrix(0.05,0,0,0.05,5,0)" xlink:href="#aW"/><use transform="matrix(0.05,0,0,0.05,17.950000000000003,0)" xlink:href="#aX"/></g><path d="M85-194c31 0 48 13 60 33l-1-100h32l1 261h-30c-2-10 0-23-3-31C134-8 116 4 85 4 32 4 16-35 15-94c0-66 23-100 70-100zm9 24c-40 0-46 34-46 75 0 40 6 74 45 74 42 0 51-32 51-76 0-42-9-74-50-73" id="bk"/><path d="M-5 72V49h209v23H-5" id="bl"/><g id="j"><use transform="matrix(0.05,0,0,0.05,0,0)" xlink:href="#aK"/><use transform="matrix(0.05,0,0,0.05,12.950000000000001,0)" xlink:href="#aL"/><use transform="matrix(0.05,0,0,0.05,22.950000000000003,0)" xlink:href="#aM"/><use transform="matrix(0.05,0,0,0.05,27.950000000000003,0)" xlink:href="#bd"/><use transform="matrix(0.05,0,0,0.05,37.95,0)" xlink:href="#bk"/><use transform="matrix(0.05,0,0,0.05,47.95,0)" xlink:href="#bl"/><use transform="matrix(0.05,0,0,0.05,57.95,0)" xlink:href="#aZ"/><use transform="matrix(0.05,0,0,0.05,71.95,0)" xlink:href="#aO"/></g><g id="k"><use transform="matrix(0.05,0,0,0.05,0,0)" xlink:href="#aV"/><use transform="matrix(0.05,0,0,0.05,12.950000000000001,0)" xlink:href="#aL"/><use transform="matrix(0.05,0,0,0.05,22.950000000000003,0)" xlink:href="#aM"/><use transform="matrix(0.05,0,0,0.05,27.950000000000003,0)" xlink:href="#bd"/><use transform="matrix(0.05,0,0,0.05,37.95,0)" xlink:href="#aX"/><use transform="matrix(0.05,0,0,0.05,48.25000000000001,0)" xlink:href="#aN"/><use transform="matrix(0.05,0,0,0.05,52.20000000000002,0)" xlink:href="#bc"/><use transform="matrix(0.05,0,0,0.05,67.15,0)" xlink:href="#bd"/></g><path d="M24 0v-261h32V0H24" id="bm"/><g id="l"><use transform="matrix(0.05,0,0,0.05,0,0)" xlink:href="#aY"/><use transform="matrix(0.05,0,0,0.05,10.950000000000001,0)" xlink:href="#bm"/><use transform="matrix(0.05,0,0,0.05,14.9,0)" xlink:href="#aL"/><use transform="matrix(0.05,0,0,0.05,24.900000000000002,0)" xlink:href="#aP"/></g><g id="m"><use transform="matrix(0.05,0,0,0.05,0,0)" xlink:href="#aY"/><use transform="matrix(0.05,0,0,0.05,10.950000000000001,0)" xlink:href="#bm"/><use transform="matrix(0.05,0,0,0.05,14.9,0)" xlink:href="#aL"/><use transform="matrix(0.05,0,0,0.05,24.900000000000002,0)" xlink:href="#aP"/><use transform="matrix(0.05,0,0,0.05,34.900000000000006,0)" xlink:href="#aR"/><use transform="matrix(0.05,0,0,0.05,39.900000000000006,0)" xlink:href="#aV"/></g><g id="n"><use transform="matrix(0.05,0,0,0.05,0,0)" xlink:href="#be"/><use transform="matrix(0.05,0,0,0.05,12.950000000000001,0)" xlink:href="#bf"/><use transform="matrix(0.05,0,0,0.05,21.950000000000003,0)" xlink:href="#bd"/><use transform="matrix(0.05,0,0,0.05,31.950000000000003,0)" xlink:href="#bg"/><use transform="matrix(0.05,0,0,0.05,37.900000000000006,0)" xlink:href="#aR"/><use transform="matrix(0.05,0,0,0.05,42.900000000000006,0)" xlink:href="#aV"/></g><g id="o"><use transform="matrix(0.05,0,0,0.05,0,0)" xlink:href="#bb"/><use transform="matrix(0.05,0,0,0.05,14,0)" xlink:href="#aL"/><use transform="matrix(0.05,0,0,0.05,24,0)" xlink:href="#bc"/><use transform="matrix(0.05,0,0,0.05,38.95,0)" xlink:href="#bd"/><use transform="matrix(0.05,0,0,0.05,48.95,0)" xlink:href="#aR"/><use transform="matrix(0.05,0,0,0.05,53.95,0)" xlink:href="#aV"/></g><g id="p"><use transform="matrix(0.05,0,0,0.05,0,0)" xlink:href="#aY"/><use transform="matrix(0.05,0,0,0.05,10.950000000000001,0)" xlink:href="#bm"/><use transform="matrix(0.05,0,0,0.05,14.9,0)" xlink:href="#aL"/><use transform="matrix(0.05,0,0,0.05,24.900000000000002,0)" xlink:href="#aP"/><use transform="matrix(0.05,0,0,0.05,34.900000000000006,0)" xlink:href="#aK"/><use transform="matrix(0.05,0,0,0.05,47.85000000000001,0)" xlink:href="#bd"/><use transform="matrix(0.05,0,0,0.05,57.85,0)" xlink:href="#aL"/><use transform="matrix(0.05,0,0,0.05,67.85000000000001,0)" xlink:href="#bf"/><use transform="matrix(0.05,0,0,0.05,76.85000000000001,0)" xlink:href="#bj"/><use transform="matrix(0.05,0,0,0.05,86.85000000000001,0)" xlink:href="#aO"/></g><path d="M195 0l-74-108L45 0H8l94-129-87-119h37l69 98 67-98h37l-84 118L233 0h-38" id="bn"/><g id="q"><use transform="matrix(0.05,0,0,0.05,0,0)" xlink:href="#aX"/><use transform="matrix(0.05,0,0,0.05,10.950000000000001,0)" xlink:href="#ba"/><use transform="matrix(0.05,0,0,0.05,22.950000000000003,0)" xlink:href="#bn"/><use transform="matrix(0.05,0,0,0.05,34.95,0)" xlink:href="#aX"/></g><g id="r"><use transform="matrix(0.05,0,0,0.05,0,0)" xlink:href="#aY"/><use transform="matrix(0.05,0,0,0.05,10.950000000000001,0)" xlink:href="#bm"/><use transform="matrix(0.05,0,0,0.05,14.9,0)" xlink:href="#aL"/><use transform="matrix(0.05,0,0,0.05,24.900000000000002,0)" xlink:href="#aP"/><use transform="matrix(0.05,0,0,0.05,34.900000000000006,0)" xlink:href="#aP"/><use transform="matrix(0.05,0,0,0.05,44.900000000000006,0)" xlink:href="#bd"/><use transform="matrix(0.05,0,0,0.05,54.900000000000006,0)" xlink:href="#bk"/><use transform="matrix(0.05,0,0,0.05,64.9,0)" xlink:href="#bl"/><use transform="matrix(0.05,0,0,0.05,74.9,0)" xlink:href="#aZ"/><use transform="matrix(0.05,0,0,0.05,88.9,0)" xlink:href="#aO"/></g><path d="M101-234c-31-9-42 10-38 44h38v23H63V0H32v-167H5v-23h27c-7-52 17-82 69-68v24" id="bo"/><g id="s"><use transform="matrix(0.05,0,0,0.05,0,0)" xlink:href="#aW"/><use transform="matrix(0.05,0,0,0.05,12.950000000000001,0)" xlink:href="#bj"/><use transform="matrix(0.05,0,0,0.05,22.950000000000003,0)" xlink:href="#aM"/><use transform="matrix(0.05,0,0,0.05,27.950000000000003,0)" xlink:href="#aN"/><use transform="matrix(0.05,0,0,0.05,31.900000000000002,0)" xlink:href="#bo"/><use transform="matrix(0.05,0,0,0.05,36.900000000000006,0)" xlink:href="#aN"/><use transform="matrix(0.05,0,0,0.05,40.85000000000001,0)" xlink:href="#bi"/><use transform="matrix(0.05,0,0,0.05,49.85000000000001,0)" xlink:href="#aL"/><use transform="matrix(0.05,0,0,0.05,59.85,0)" xlink:href="#aM"/><use transform="matrix(0.05,0,0,0.05,64.85000000000001,0)" xlink:href="#aN"/><use transform="matrix(0.05,0,0,0.05,68.80000000000001,0)" xlink:href="#bj"/><use transform="matrix(0.05,0,0,0.05,78.80000000000001,0)" xlink:href="#aO"/></g><g id="t"><use transform="matrix(0.05,0,0,0.05,0,0)" xlink:href="#aW"/><use transform="matrix(0.05,0,0,0.05,12.950000000000001,0)" xlink:href="#bj"/><use transform="matrix(0.05,0,0,0.05,22.950000000000003,0)" xlink:href="#aM"/><use transform="matrix(0.05,0,0,0.05,27.950000000000003,0)" xlink:href="#aN"/><use transform="matrix(0.05,0,0,0.05,31.900000000000002,0)" xlink:href="#bo"/><use transform="matrix(0.05,0,0,0.05,36.900000000000006,0)" xlink:href="#aN"/><use transform="matrix(0.05,0,0,0.05,40.85000000000001,0)" xlink:href="#bi"/><use transform="matrix(0.05,0,0,0.05,49.85000000000001,0)" xlink:href="#aL"/><use transform="matrix(0.05,0,0,0.05,59.85,0)" xlink:href="#aM"/><use transform="matrix(0.05,0,0,0.05,64.85000000000001,0)" xlink:href="#aN"/><use transform="matrix(0.05,0,0,0.05,68.80000000000001,0)" xlink:href="#bj"/><use transform="matrix(0.05,0,0,0.05,78.80000000000001,0)" xlink:href="#aO"/><use transform="matrix(0.05,0,0,0.05,88.80000000000001,0)" xlink:href="#aR"/><use transform="matrix(0.05,0,0,0.05,93.80000000000001,0)" xlink:href="#aV"/></g><g id="u"><use transform="matrix(0.05,0,0,0.05,0,0)" xlink:href="#aS"/><use transform="matrix(0.05,0,0,0.05,14.950000000000001,0)" xlink:href="#bd"/><use transform="matrix(0.05,0,0,0.05,24.950000000000003,0)" xlink:href="#bf"/><use transform="matrix(0.05,0,0,0.05,33.95,0)" xlink:href="#bf"/><use transform="matrix(0.05,0,0,0.05,42.95,0)" xlink:href="#aL"/><use transform="matrix(0.05,0,0,0.05,52.95,0)" xlink:href="#aP"/><use transform="matrix(0.05,0,0,0.05,62.95,0)" xlink:href="#bd"/></g><path d="M179-190L93 31C79 59 56 82 12 73V49c39 6 53-20 64-50L1-190h34L92-34l54-156h33" id="bp"/><path d="M115-194c55 1 70 41 70 98S169 2 115 4C84 4 66-9 55-30l1 105H24l-1-265h31l2 30c10-21 28-34 59-34zm-8 174c40 0 45-34 45-75s-6-73-45-74c-42 0-51 32-51 76 0 43 10 73 51 73" id="bq"/><g id="v"><use transform="matrix(0.05,0,0,0.05,0,0)" xlink:href="#aX"/><use transform="matrix(0.05,0,0,0.05,9.950000000000001,0)" xlink:href="#bp"/><use transform="matrix(0.05,0,0,0.05,18.950000000000003,0)" xlink:href="#bq"/><use transform="matrix(0.05,0,0,0.05,28.950000000000003,0)" xlink:href="#bd"/></g><path d="M87 75C49 33 22-17 22-94c0-76 28-126 65-167h31c-38 41-64 92-64 168S80 34 118 75H87" id="br"/><path d="M47-170H22l-4-78h33" id="bs"/><path d="M68-38c1 34 0 65-14 84H32c9-13 17-26 17-46H33v-38h35" id="bt"/><g id="w"><use transform="matrix(0.05,0,0,0.05,0,0)" xlink:href="#ba"/><use transform="matrix(0.05,0,0,0.05,12,0)" xlink:href="#aW"/><use transform="matrix(0.05,0,0,0.05,24.950000000000003,0)" xlink:href="#be"/><use transform="matrix(0.05,0,0,0.05,37.900000000000006,0)" xlink:href="#aS"/><use transform="matrix(0.05,0,0,0.05,52.85,0)" xlink:href="#br"/><use transform="matrix(0.05,0,0,0.05,58.80000000000001,0)" xlink:href="#bs"/><use transform="matrix(0.05,0,0,0.05,62.20000000000002,0)" xlink:href="#bf"/><use transform="matrix(0.05,0,0,0.05,71.20000000000002,0)" xlink:href="#bp"/><use transform="matrix(0.05,0,0,0.05,80.20000000000002,0)" xlink:href="#bf"/><use transform="matrix(0.05,0,0,0.05,89.20000000000002,0)" xlink:href="#aM"/><use transform="matrix(0.05,0,0,0.05,94.20000000000002,0)" xlink:href="#bd"/><use transform="matrix(0.05,0,0,0.05,104.2,0)" xlink:href="#bc"/><use transform="matrix(0.05,0,0,0.05,119.15000000000003,0)" xlink:href="#bs"/><use transform="matrix(0.05,0,0,0.05,122.55000000000003,0)" xlink:href="#bt"/></g><g id="x"><use transform="matrix(0.05,0,0,0.05,0,0)" xlink:href="#bs"/><use transform="matrix(0.05,0,0,0.05,3.4000000000000004,0)" xlink:href="#bc"/><use transform="matrix(0.05,0,0,0.05,18.35,0)" xlink:href="#bj"/><use transform="matrix(0.05,0,0,0.05,28.35,0)" xlink:href="#bk"/><use transform="matrix(0.05,0,0,0.05,38.35,0)" xlink:href="#bd"/><use transform="matrix(0.05,0,0,0.05,48.35,0)" xlink:href="#bg"/><use transform="matrix(0.05,0,0,0.05,54.300000000000004,0)" xlink:href="#aL"/><use transform="matrix(0.05,0,0,0.05,64.30000000000001,0)" xlink:href="#aM"/><use transform="matrix(0.05,0,0,0.05,69.30000000000001,0)" xlink:href="#bj"/><use transform="matrix(0.05,0,0,0.05,79.30000000000001,0)" xlink:href="#bg"/><use transform="matrix(0.05,0,0,0.05,85.25000000000001,0)" xlink:href="#bs"/><use transform="matrix(0.05,0,0,0.05,88.65000000000002,0)" xlink:href="#bt"/></g><path d="M206 0h-36l-40-164L89 0H53L-1-190h32L70-26l43-164h34l41 164 42-164h31" id="bu"/><path d="M106-169C34-169 62-67 57 0H25v-261h32l-1 103c12-21 28-36 61-36 89 0 53 116 60 194h-32v-121c2-32-8-49-39-48" id="bv"/><path d="M33-261c38 41 65 92 65 168S71 34 33 75H2C39 34 66-17 66-93S39-220 2-261h31" id="bw"/><g id="y"><use transform="matrix(0.05,0,0,0.05,0,0)" xlink:href="#bs"/><use transform="matrix(0.05,0,0,0.05,3.4000000000000004,0)" xlink:href="#bu"/><use transform="matrix(0.05,0,0,0.05,16.35,0)" xlink:href="#aN"/><use transform="matrix(0.05,0,0,0.05,20.3,0)" xlink:href="#bf"/><use transform="matrix(0.05,0,0,0.05,29.3,0)" xlink:href="#bv"/><use transform="matrix(0.05,0,0,0.05,39.3,0)" xlink:href="#bm"/><use transform="matrix(0.05,0,0,0.05,43.25,0)" xlink:href="#aN"/><use transform="matrix(0.05,0,0,0.05,47.2,0)" xlink:href="#bf"/><use transform="matrix(0.05,0,0,0.05,56.2,0)" xlink:href="#aM"/><use transform="matrix(0.05,0,0,0.05,61.2,0)" xlink:href="#bs"/><use transform="matrix(0.05,0,0,0.05,64.60000000000001,0)" xlink:href="#bw"/></g><path d="M212-179c-10-28-35-45-73-45-59 0-87 40-87 99 0 60 29 101 89 101 43 0 62-24 78-52l27 14C228-24 195 4 139 4 59 4 22-46 18-125c-6-104 99-153 187-111 19 9 31 26 39 46" id="bx"/><g id="z"><use transform="matrix(0.05,0,0,0.05,0,0)" xlink:href="#bx"/><use transform="matrix(0.05,0,0,0.05,12.950000000000001,0)" xlink:href="#bg"/><use transform="matrix(0.05,0,0,0.05,18.900000000000002,0)" xlink:href="#bd"/><use transform="matrix(0.05,0,0,0.05,28.900000000000002,0)" xlink:href="#aL"/><use transform="matrix(0.05,0,0,0.05,38.900000000000006,0)" xlink:href="#aM"/><use transform="matrix(0.05,0,0,0.05,43.900000000000006,0)" xlink:href="#bd"/><use transform="matrix(0.05,0,0,0.05,53.900000000000006,0)" xlink:href="#bk"/><use transform="matrix(0.05,0,0,0.05,63.900000000000006,0)" xlink:href="#bl"/><use transform="matrix(0.05,0,0,0.05,73.9,0)" xlink:href="#aZ"/><use transform="matrix(0.05,0,0,0.05,87.9,0)" xlink:href="#aO"/></g><g id="A"><use transform="matrix(0.05,0,0,0.05,0,0)" xlink:href="#aK"/><use transform="matrix(0.05,0,0,0.05,12.950000000000001,0)" xlink:href="#bd"/><use transform="matrix(0.05,0,0,0.05,22.950000000000003,0)" xlink:href="#aL"/><use transform="matrix(0.05,0,0,0.05,32.95,0)" xlink:href="#bk"/></g><path d="M160-131c35 5 61 23 61 61C221 17 115-2 30 0v-248c76 3 177-17 177 60 0 33-19 50-47 57zm-97-11c50-1 110 9 110-42 0-47-63-36-110-37v79zm0 115c55-2 124 14 124-45 0-56-70-42-124-44v89" id="by"/><path d="M30 0v-248h33v221h125V0H30" id="bz"/><g id="B"><use transform="matrix(0.05,0,0,0.05,0,0)" xlink:href="#by"/><use transform="matrix(0.05,0,0,0.05,12,0)" xlink:href="#aZ"/><use transform="matrix(0.05,0,0,0.05,26,0)" xlink:href="#aZ"/><use transform="matrix(0.05,0,0,0.05,40,0)" xlink:href="#bz"/><use transform="matrix(0.05,0,0,0.05,50,0)" xlink:href="#ba"/><use transform="matrix(0.05,0,0,0.05,62,0)" xlink:href="#aT"/><use transform="matrix(0.05,0,0,0.05,74,0)" xlink:href="#aW"/></g><g id="C"><use transform="matrix(0.05,0,0,0.05,0,0)" xlink:href="#aV"/><use transform="matrix(0.05,0,0,0.05,12.950000000000001,0)" xlink:href="#ba"/><use transform="matrix(0.05,0,0,0.05,24.950000000000003,0)" xlink:href="#aY"/><use transform="matrix(0.05,0,0,0.05,34.900000000000006,0)" xlink:href="#aT"/><use transform="matrix(0.05,0,0,0.05,46.900000000000006,0)" xlink:href="#be"/><use transform="matrix(0.05,0,0,0.05,59.85,0)" xlink:href="#bz"/><use transform="matrix(0.05,0,0,0.05,68.5,0)" xlink:href="#aX"/></g><g id="D"><use transform="matrix(0.05,0,0,0.05,0,0)" xlink:href="#aY"/><use transform="matrix(0.05,0,0,0.05,9.950000000000001,0)" xlink:href="#aT"/><use transform="matrix(0.05,0,0,0.05,21.950000000000003,0)" xlink:href="#bz"/><use transform="matrix(0.05,0,0,0.05,31.950000000000003,0)" xlink:href="#bh"/><use transform="matrix(0.05,0,0,0.05,43.95,0)" xlink:href="#ba"/></g><path d="M143 0L79-87 56-68V0H24v-261h32v163l83-92h37l-77 82L181 0h-38" id="bA"/><g id="E"><use transform="matrix(0.05,0,0,0.05,0,0)" xlink:href="#bz"/><use transform="matrix(0.05,0,0,0.05,10,0)" xlink:href="#aN"/><use transform="matrix(0.05,0,0,0.05,13.949999999999998,0)" xlink:href="#aO"/><use transform="matrix(0.05,0,0,0.05,23.95,0)" xlink:href="#bA"/></g><g id="F"><use transform="matrix(0.05,0,0,0.05,0,0)" xlink:href="#bb"/><use transform="matrix(0.05,0,0,0.05,14,0)" xlink:href="#bd"/><use transform="matrix(0.05,0,0,0.05,24,0)" xlink:href="#aO"/><use transform="matrix(0.05,0,0,0.05,34,0)" xlink:href="#bg"/><use transform="matrix(0.05,0,0,0.05,39.95,0)" xlink:href="#bd"/></g><g id="G"><use transform="matrix(0.05,0,0,0.05,0,0)" xlink:href="#bb"/><use transform="matrix(0.05,0,0,0.05,14,0)" xlink:href="#bd"/><use transform="matrix(0.05,0,0,0.05,24,0)" xlink:href="#aO"/><use transform="matrix(0.05,0,0,0.05,34,0)" xlink:href="#bg"/><use transform="matrix(0.05,0,0,0.05,39.95,0)" xlink:href="#bd"/><use transform="matrix(0.05,0,0,0.05,49.95,0)" xlink:href="#aR"/><use transform="matrix(0.05,0,0,0.05,54.95,0)" xlink:href="#aV"/></g><g id="H"><use transform="matrix(0.05,0,0,0.05,0,0)" xlink:href="#aX"/><use transform="matrix(0.05,0,0,0.05,10.950000000000001,0)" xlink:href="#ba"/><use transform="matrix(0.05,0,0,0.05,22.950000000000003,0)" xlink:href="#bn"/><use transform="matrix(0.05,0,0,0.05,34.95,0)" xlink:href="#aX"/></g><g id="I"><use transform="matrix(0.05,0,0,0.05,0,0)" xlink:href="#bb"/><use transform="matrix(0.05,0,0,0.05,14,0)" xlink:href="#aL"/><use transform="matrix(0.05,0,0,0.05,24,0)" xlink:href="#bc"/><use transform="matrix(0.05,0,0,0.05,38.95,0)" xlink:href="#bd"/><use transform="matrix(0.05,0,0,0.05,48.95,0)" xlink:href="#bb"/><use transform="matrix(0.05,0,0,0.05,62.95,0)" xlink:href="#bd"/><use transform="matrix(0.05,0,0,0.05,72.95,0)" xlink:href="#aO"/><use transform="matrix(0.05,0,0,0.05,82.95,0)" xlink:href="#bg"/><use transform="matrix(0.05,0,0,0.05,88.9,0)" xlink:href="#bd"/></g><g id="J"><use transform="matrix(0.05,0,0,0.05,0,0)" xlink:href="#bi"/><use transform="matrix(0.05,0,0,0.05,9,0)" xlink:href="#bj"/><use transform="matrix(0.05,0,0,0.05,19,0)" xlink:href="#bc"/><use transform="matrix(0.05,0,0,0.05,33.95,0)" xlink:href="#bq"/></g><g id="K"><use transform="matrix(0.05,0,0,0.05,0,0)" xlink:href="#aQ"/><use transform="matrix(0.05,0,0,0.05,12,0)" xlink:href="#aK"/><use transform="matrix(0.05,0,0,0.05,24.950000000000003,0)" xlink:href="#aR"/><use transform="matrix(0.05,0,0,0.05,29.950000000000003,0)" xlink:href="#aS"/><use transform="matrix(0.05,0,0,0.05,44.900000000000006,0)" xlink:href="#aT"/><use transform="matrix(0.05,0,0,0.05,56.900000000000006,0)" xlink:href="#aK"/><use transform="matrix(0.05,0,0,0.05,69.5,0)" xlink:href="#aU"/></g><g id="L"><use transform="matrix(0.05,0,0,0.05,0,0)" xlink:href="#bx"/><use transform="matrix(0.05,0,0,0.05,12.950000000000001,0)" xlink:href="#bj"/><use transform="matrix(0.05,0,0,0.05,22.950000000000003,0)" xlink:href="#bc"/><use transform="matrix(0.05,0,0,0.05,37.900000000000006,0)" xlink:href="#bc"/><use transform="matrix(0.05,0,0,0.05,52.85,0)" xlink:href="#bd"/><use transform="matrix(0.05,0,0,0.05,62.85,0)" xlink:href="#aO"/><use transform="matrix(0.05,0,0,0.05,72.85000000000001,0)" xlink:href="#aM"/><use transform="matrix(0.05,0,0,0.05,77.85000000000001,0)" xlink:href="#bf"/></g><g id="M"><use transform="matrix(0.05,0,0,0.05,0,0)" xlink:href="#bx"/><use transform="matrix(0.05,0,0,0.05,12.950000000000001,0)" xlink:href="#bj"/><use transform="matrix(0.05,0,0,0.05,22.950000000000003,0)" xlink:href="#bc"/><use transform="matrix(0.05,0,0,0.05,37.900000000000006,0)" xlink:href="#bc"/><use transform="matrix(0.05,0,0,0.05,52.85,0)" xlink:href="#bd"/><use transform="matrix(0.05,0,0,0.05,62.85,0)" xlink:href="#aO"/><use transform="matrix(0.05,0,0,0.05,72.85000000000001,0)" xlink:href="#aM"/><use transform="matrix(0.05,0,0,0.05,77.85000000000001,0)" xlink:href="#aR"/><use transform="matrix(0.05,0,0,0.05,82.85000000000001,0)" xlink:href="#aV"/></g><g id="N"><use transform="matrix(0.05,0,0,0.05,0,0)" xlink:href="#bx"/><use transform="matrix(0.05,0,0,0.05,12.950000000000001,0)" xlink:href="#bj"/><use transform="matrix(0.05,0,0,0.05,22.950000000000003,0)" xlink:href="#aO"/><use transform="matrix(0.05,0,0,0.05,32.95,0)" xlink:href="#aM"/><use transform="matrix(0.05,0,0,0.05,37.95,0)" xlink:href="#bd"/><use transform="matrix(0.05,0,0,0.05,47.95,0)" xlink:href="#aO"/><use transform="matrix(0.05,0,0,0.05,57.95,0)" xlink:href="#aM"/></g><path d="M141 0L90-78 38 0H4l68-98-65-92h35l48 74 47-74h35l-64 92 68 98h-35" id="bB"/><g id="O"><use transform="matrix(0.05,0,0,0.05,0,0)" xlink:href="#aX"/><use transform="matrix(0.05,0,0,0.05,8.950000000000001,0)" xlink:href="#bd"/><use transform="matrix(0.05,0,0,0.05,18.950000000000003,0)" xlink:href="#bB"/><use transform="matrix(0.05,0,0,0.05,27.950000000000003,0)" xlink:href="#aM"/></g><g id="P"><use transform="matrix(0.05,0,0,0.05,0,0)" xlink:href="#ba"/><use transform="matrix(0.05,0,0,0.05,12,0)" xlink:href="#bk"/><use transform="matrix(0.05,0,0,0.05,22,0)" xlink:href="#aN"/><use transform="matrix(0.05,0,0,0.05,25.950000000000003,0)" xlink:href="#aM"/><use transform="matrix(0.05,0,0,0.05,30.950000000000003,0)" xlink:href="#bd"/><use transform="matrix(0.05,0,0,0.05,40.95,0)" xlink:href="#bk"/><use transform="matrix(0.05,0,0,0.05,50.95,0)" xlink:href="#bl"/><use transform="matrix(0.05,0,0,0.05,60.95,0)" xlink:href="#aZ"/><use transform="matrix(0.05,0,0,0.05,74.95,0)" xlink:href="#aO"/></g><g id="Q"><use transform="matrix(0.05,0,0,0.05,0,0)" xlink:href="#aX"/><use transform="matrix(0.05,0,0,0.05,8.950000000000001,0)" xlink:href="#aL"/><use transform="matrix(0.05,0,0,0.05,18.950000000000003,0)" xlink:href="#aP"/></g><g id="R"><use transform="matrix(0.05,0,0,0.05,0,0)" xlink:href="#aX"/><use transform="matrix(0.05,0,0,0.05,8.950000000000001,0)" xlink:href="#aL"/><use transform="matrix(0.05,0,0,0.05,18.950000000000003,0)" xlink:href="#aP"/><use transform="matrix(0.05,0,0,0.05,28.950000000000003,0)" xlink:href="#aR"/><use transform="matrix(0.05,0,0,0.05,33.95,0)" xlink:href="#aV"/></g><g id="S"><use transform="matrix(0.05,0,0,0.05,0,0)" xlink:href="#aW"/><use transform="matrix(0.05,0,0,0.05,12.950000000000001,0)" xlink:href="#aL"/><use transform="matrix(0.05,0,0,0.05,22.950000000000003,0)" xlink:href="#bc"/><use transform="matrix(0.05,0,0,0.05,37.900000000000006,0)" xlink:href="#bd"/></g><g id="T"><use transform="matrix(0.05,0,0,0.05,0,0)" xlink:href="#bb"/><use transform="matrix(0.05,0,0,0.05,14,0)" xlink:href="#aL"/><use transform="matrix(0.05,0,0,0.05,24,0)" xlink:href="#bc"/><use transform="matrix(0.05,0,0,0.05,38.95,0)" xlink:href="#bd"/><use transform="matrix(0.05,0,0,0.05,48.95,0)" xlink:href="#aX"/><use transform="matrix(0.05,0,0,0.05,57.900000000000006,0)" xlink:href="#aL"/><use transform="matrix(0.05,0,0,0.05,67.9,0)" xlink:href="#aP"/></g><g id="U"><use transform="matrix(0.05,0,0,0.05,0,0)" xlink:href="#bi"/><use transform="matrix(0.05,0,0,0.05,9,0)" xlink:href="#bj"/><use transform="matrix(0.05,0,0,0.05,19,0)" xlink:href="#bc"/><use transform="matrix(0.05,0,0,0.05,33.95,0)" xlink:href="#bq"/></g><g id="V"><use transform="matrix(0.05,0,0,0.05,0,0)" xlink:href="#aQ"/><use transform="matrix(0.05,0,0,0.05,12,0)" xlink:href="#aK"/><use transform="matrix(0.05,0,0,0.05,24.950000000000003,0)" xlink:href="#aR"/><use transform="matrix(0.05,0,0,0.05,29.950000000000003,0)" xlink:href="#aS"/><use transform="matrix(0.05,0,0,0.05,44.900000000000006,0)" xlink:href="#aT"/><use transform="matrix(0.05,0,0,0.05,56.900000000000006,0)" xlink:href="#aK"/><use transform="matrix(0.05,0,0,0.05,69.5,0)" xlink:href="#aU"/></g><g id="W"><use transform="matrix(0.05,0,0,0.05,0,0)" xlink:href="#bb"/><use transform="matrix(0.05,0,0,0.05,14,0)" xlink:href="#aL"/><use transform="matrix(0.05,0,0,0.05,24,0)" xlink:href="#bc"/><use transform="matrix(0.05,0,0,0.05,38.95,0)" xlink:href="#bd"/></g><path d="M84 4C-5 8 30-112 23-190h32v120c0 31 7 50 39 49 72-2 45-101 50-169h31l1 190h-30c-1-10 1-25-2-33-11 22-28 36-60 37" id="bC"/><path d="M115-194c53 0 69 39 70 98 0 66-23 100-70 100C84 3 66-7 56-30L54 0H23l1-261h32v101c10-23 28-34 59-34zm-8 174c40 0 45-34 45-75 0-40-5-75-45-74-42 0-51 32-51 76 0 43 10 73 51 73" id="bD"/><g id="X"><use transform="matrix(0.05,0,0,0.05,0,0)" xlink:href="#bh"/><use transform="matrix(0.05,0,0,0.05,12,0)" xlink:href="#bC"/><use transform="matrix(0.05,0,0,0.05,22,0)" xlink:href="#bD"/><use transform="matrix(0.05,0,0,0.05,32,0)" xlink:href="#bc"/><use transform="matrix(0.05,0,0,0.05,46.95,0)" xlink:href="#aN"/><use transform="matrix(0.05,0,0,0.05,50.900000000000006,0)" xlink:href="#aM"/><use transform="matrix(0.05,0,0,0.05,55.900000000000006,0)" xlink:href="#aM"/><use transform="matrix(0.05,0,0,0.05,60.900000000000006,0)" xlink:href="#bd"/><use transform="matrix(0.05,0,0,0.05,70.9,0)" xlink:href="#bk"/><use transform="matrix(0.05,0,0,0.05,80.9,0)" xlink:href="#by"/><use transform="matrix(0.05,0,0,0.05,92.9,0)" xlink:href="#bp"/></g><g id="Y"><use transform="matrix(0.05,0,0,0.05,0,0)" xlink:href="#aX"/><use transform="matrix(0.05,0,0,0.05,10.3,0)" xlink:href="#aN"/><use transform="matrix(0.05,0,0,0.05,14.25,0)" xlink:href="#aM"/><use transform="matrix(0.05,0,0,0.05,19.25,0)" xlink:href="#bm"/><use transform="matrix(0.05,0,0,0.05,23.2,0)" xlink:href="#bd"/></g><g id="Z"><use transform="matrix(0.05,0,0,0.05,0,0)" xlink:href="#aR"/><use transform="matrix(0.05,0,0,0.05,5,0)" xlink:href="#bc"/><use transform="matrix(0.05,0,0,0.05,19.950000000000003,0)" xlink:href="#aL"/><use transform="matrix(0.05,0,0,0.05,29.950000000000003,0)" xlink:href="#aP"/><use transform="matrix(0.05,0,0,0.05,39.95,0)" xlink:href="#bd"/></g><path d="M137 0h-34L2-248h35l83 218 83-218h36" id="bE"/><path d="M197 0v-115H63V0H30v-248h33v105h134v-105h34V0h-34" id="bF"/><path d="M101-251c82-7 93 87 43 132L82-64C71-53 59-42 53-27h129V0H18c2-99 128-94 128-182 0-28-16-43-45-43s-46 15-49 41l-32-3c6-41 34-60 81-64" id="bG"/><path d="M54-142c48-35 137-8 131 61C196 18 31 33 14-55l32-4c7 23 22 37 52 37 35-1 51-22 54-58 4-55-73-65-99-34H22l8-134h141v27H59" id="bH"/><g id="aa"><use transform="matrix(0.05,0,0,0.05,0,0)" xlink:href="#bE"/><use transform="matrix(0.05,0,0,0.05,10.65,0)" xlink:href="#aT"/><use transform="matrix(0.05,0,0,0.05,22.65,0)" xlink:href="#aK"/><use transform="matrix(0.05,0,0,0.05,35.6,0)" xlink:href="#bx"/><use transform="matrix(0.05,0,0,0.05,48.550000000000004,0)" xlink:href="#bF"/><use transform="matrix(0.05,0,0,0.05,61.5,0)" xlink:href="#aT"/><use transform="matrix(0.05,0,0,0.05,73.5,0)" xlink:href="#aK"/><use transform="matrix(0.05,0,0,0.05,86.45,0)" xlink:href="#br"/><use transform="matrix(0.05,0,0,0.05,92.4,0)" xlink:href="#bG"/><use transform="matrix(0.05,0,0,0.05,102.4,0)" xlink:href="#bH"/><use transform="matrix(0.05,0,0,0.05,112.4,0)" xlink:href="#bH"/><use transform="matrix(0.05,0,0,0.05,122.4,0)" xlink:href="#bw"/></g><g id="ab"><use transform="matrix(0.05,0,0,0.05,0,0)" xlink:href="#aV"/><use transform="matrix(0.05,0,0,0.05,12.950000000000001,0)" xlink:href="#bd"/><use transform="matrix(0.05,0,0,0.05,22.950000000000003,0)" xlink:href="#bf"/><use transform="matrix(0.05,0,0,0.05,31.950000000000003,0)" xlink:href="#bi"/><use transform="matrix(0.05,0,0,0.05,40.95,0)" xlink:href="#bg"/><use transform="matrix(0.05,0,0,0.05,46.900000000000006,0)" xlink:href="#aN"/><use transform="matrix(0.05,0,0,0.05,50.85000000000001,0)" xlink:href="#bq"/><use transform="matrix(0.05,0,0,0.05,60.85,0)" xlink:href="#aM"/><use transform="matrix(0.05,0,0,0.05,65.85000000000001,0)" xlink:href="#aN"/><use transform="matrix(0.05,0,0,0.05,69.80000000000001,0)" xlink:href="#bj"/><use transform="matrix(0.05,0,0,0.05,79.80000000000001,0)" xlink:href="#aO"/></g><g id="ac"><use transform="matrix(0.05,0,0,0.05,0,0)" xlink:href="#aK"/><use transform="matrix(0.05,0,0,0.05,12.950000000000001,0)" xlink:href="#bd"/><use transform="matrix(0.05,0,0,0.05,22.950000000000003,0)" xlink:href="#bm"/><use transform="matrix(0.05,0,0,0.05,26.900000000000002,0)" xlink:href="#bd"/><use transform="matrix(0.05,0,0,0.05,36.900000000000006,0)" xlink:href="#aL"/><use transform="matrix(0.05,0,0,0.05,46.900000000000006,0)" xlink:href="#bf"/><use transform="matrix(0.05,0,0,0.05,55.900000000000006,0)" xlink:href="#bd"/><use transform="matrix(0.05,0,0,0.05,65.9,0)" xlink:href="#aV"/><use transform="matrix(0.05,0,0,0.05,78.85000000000001,0)" xlink:href="#aL"/><use transform="matrix(0.05,0,0,0.05,88.85000000000001,0)" xlink:href="#aM"/><use transform="matrix(0.05,0,0,0.05,93.85000000000001,0)" xlink:href="#bd"/></g><g id="ad"><use transform="matrix(0.05,0,0,0.05,0,0)" xlink:href="#aV"/><use transform="matrix(0.05,0,0,0.05,12.950000000000001,0)" xlink:href="#aL"/><use transform="matrix(0.05,0,0,0.05,22.950000000000003,0)" xlink:href="#aM"/><use transform="matrix(0.05,0,0,0.05,27.950000000000003,0)" xlink:href="#bd"/></g><path d="M108 0H70L1-190h34L89-25l56-165h34" id="bI"/><g id="ae"><use transform="matrix(0.05,0,0,0.05,0,0)" xlink:href="#aV"/><use transform="matrix(0.05,0,0,0.05,12.950000000000001,0)" xlink:href="#bd"/><use transform="matrix(0.05,0,0,0.05,22.950000000000003,0)" xlink:href="#bI"/><use transform="matrix(0.05,0,0,0.05,31.950000000000003,0)" xlink:href="#bd"/><use transform="matrix(0.05,0,0,0.05,41.95,0)" xlink:href="#bm"/><use transform="matrix(0.05,0,0,0.05,45.900000000000006,0)" xlink:href="#bj"/><use transform="matrix(0.05,0,0,0.05,55.900000000000006,0)" xlink:href="#bq"/><use transform="matrix(0.05,0,0,0.05,65.9,0)" xlink:href="#bd"/><use transform="matrix(0.05,0,0,0.05,75.9,0)" xlink:href="#bg"/></g><g id="af"><use transform="matrix(0.05,0,0,0.05,0,0)" xlink:href="#aT"/><use transform="matrix(0.05,0,0,0.05,11.65,0)" xlink:href="#bI"/><use transform="matrix(0.05,0,0,0.05,20.65,0)" xlink:href="#bd"/><use transform="matrix(0.05,0,0,0.05,30.649999999999995,0)" xlink:href="#bg"/><use transform="matrix(0.05,0,0,0.05,36.6,0)" xlink:href="#aL"/><use transform="matrix(0.05,0,0,0.05,46.6,0)" xlink:href="#aP"/><use transform="matrix(0.05,0,0,0.05,56.6,0)" xlink:href="#bd"/><use transform="matrix(0.05,0,0,0.05,66.6,0)" xlink:href="#aK"/><use transform="matrix(0.05,0,0,0.05,79.55,0)" xlink:href="#aL"/><use transform="matrix(0.05,0,0,0.05,89.55,0)" xlink:href="#aM"/><use transform="matrix(0.05,0,0,0.05,94.55,0)" xlink:href="#aN"/><use transform="matrix(0.05,0,0,0.05,98.5,0)" xlink:href="#aO"/><use transform="matrix(0.05,0,0,0.05,108.5,0)" xlink:href="#aP"/></g><path d="M126-127c33 6 58 20 58 59 0 88-139 92-164 29-3-8-5-16-6-25l32-3c6 27 21 44 54 44 32 0 52-15 52-46 0-38-36-46-79-43v-28c39 1 72-4 72-42 0-27-17-43-46-43-28 0-47 15-49 41l-32-3c6-42 35-63 81-64 48-1 79 21 79 65 0 36-21 52-52 59" id="bJ"/><path d="M27 0v-27h64v-190l-56 39v-29l58-41h29v221h61V0H27" id="bK"/><g id="ag"><use transform="matrix(0.05,0,0,0.05,0,0)" xlink:href="#aV"/><use transform="matrix(0.05,0,0,0.05,12.950000000000001,0)" xlink:href="#ba"/><use transform="matrix(0.05,0,0,0.05,24.950000000000003,0)" xlink:href="#bx"/><use transform="matrix(0.05,0,0,0.05,37.900000000000006,0)" xlink:href="#aR"/><use transform="matrix(0.05,0,0,0.05,42.900000000000006,0)" xlink:href="#aS"/><use transform="matrix(0.05,0,0,0.05,57.85,0)" xlink:href="#aT"/><use transform="matrix(0.05,0,0,0.05,69.85000000000001,0)" xlink:href="#bz"/><use transform="matrix(0.05,0,0,0.05,79.85000000000001,0)" xlink:href="#br"/><use transform="matrix(0.05,0,0,0.05,85.80000000000001,0)" xlink:href="#bJ"/><use transform="matrix(0.05,0,0,0.05,95.80000000000001,0)" xlink:href="#bt"/><use transform="matrix(0.05,0,0,0.05,100.80000000000001,0)" xlink:href="#bK"/><use transform="matrix(0.05,0,0,0.05,110.80000000000001,0)" xlink:href="#bw"/></g><g id="ah"><use transform="matrix(0.05,0,0,0.05,0,0)" xlink:href="#aQ"/><use transform="matrix(0.05,0,0,0.05,12,0)" xlink:href="#bm"/><use transform="matrix(0.05,0,0,0.05,15.949999999999998,0)" xlink:href="#aL"/><use transform="matrix(0.05,0,0,0.05,25.950000000000003,0)" xlink:href="#aM"/><use transform="matrix(0.05,0,0,0.05,30.950000000000003,0)" xlink:href="#bo"/><use transform="matrix(0.05,0,0,0.05,35.95,0)" xlink:href="#bj"/><use transform="matrix(0.05,0,0,0.05,45.95,0)" xlink:href="#bg"/><use transform="matrix(0.05,0,0,0.05,51.900000000000006,0)" xlink:href="#bc"/></g><path d="M266 0h-40l-56-210L115 0H75L2-248h35L96-30l15-64 43-154h32l59 218 59-218h35" id="bL"/><g id="ai"><use transform="matrix(0.05,0,0,0.05,0,0)" xlink:href="#bL"/><use transform="matrix(0.05,0,0,0.05,16.95,0)" xlink:href="#aN"/><use transform="matrix(0.05,0,0,0.05,20.9,0)" xlink:href="#bf"/><use transform="matrix(0.05,0,0,0.05,29.899999999999995,0)" xlink:href="#bv"/><use transform="matrix(0.05,0,0,0.05,39.9,0)" xlink:href="#bm"/><use transform="matrix(0.05,0,0,0.05,43.85,0)" xlink:href="#aN"/><use transform="matrix(0.05,0,0,0.05,47.800000000000004,0)" xlink:href="#bf"/><use transform="matrix(0.05,0,0,0.05,56.800000000000004,0)" xlink:href="#aM"/></g><g id="aj"><use transform="matrix(0.05,0,0,0.05,0,0)" xlink:href="#aZ"/><use transform="matrix(0.05,0,0,0.05,14,0)" xlink:href="#bg"/><use transform="matrix(0.05,0,0,0.05,19.95,0)" xlink:href="#bk"/><use transform="matrix(0.05,0,0,0.05,29.950000000000003,0)" xlink:href="#bd"/><use transform="matrix(0.05,0,0,0.05,39.95,0)" xlink:href="#bg"/></g><g id="ak"><use transform="matrix(0.05,0,0,0.05,0,0)" xlink:href="#aT"/><use transform="matrix(0.05,0,0,0.05,12,0)" xlink:href="#bk"/><use transform="matrix(0.05,0,0,0.05,22,0)" xlink:href="#bk"/><use transform="matrix(0.05,0,0,0.05,32,0)" xlink:href="#bd"/><use transform="matrix(0.05,0,0,0.05,42,0)" xlink:href="#bk"/><use transform="matrix(0.05,0,0,0.05,52,0)" xlink:href="#bl"/><use transform="matrix(0.05,0,0,0.05,62,0)" xlink:href="#aZ"/><use transform="matrix(0.05,0,0,0.05,76,0)" xlink:href="#aO"/></g><g id="al"><use transform="matrix(0.05,0,0,0.05,0,0)" xlink:href="#be"/><use transform="matrix(0.05,0,0,0.05,12.950000000000001,0)" xlink:href="#bf"/><use transform="matrix(0.05,0,0,0.05,21.950000000000003,0)" xlink:href="#bd"/><use transform="matrix(0.05,0,0,0.05,31.950000000000003,0)" xlink:href="#bg"/></g><path d="M140-251c81 0 123 46 123 126C263-53 228-8 163 1c7 30 30 48 69 40v23c-55 16-95-15-103-61C56-3 17-48 17-125c0-80 42-126 123-126zm0 227c63 0 89-41 89-101s-29-99-89-99c-61 0-89 39-89 99S79-25 140-24" id="bM"/><g id="am"><use transform="matrix(0.05,0,0,0.05,0,0)" xlink:href="#be"/><use transform="matrix(0.05,0,0,0.05,12.950000000000001,0)" xlink:href="#aW"/><use transform="matrix(0.05,0,0,0.05,25.900000000000002,0)" xlink:href="#aR"/><use transform="matrix(0.05,0,0,0.05,30.900000000000002,0)" xlink:href="#bM"/><use transform="matrix(0.05,0,0,0.05,44.900000000000006,0)" xlink:href="#be"/><use transform="matrix(0.05,0,0,0.05,57.85,0)" xlink:href="#ba"/></g><g id="an"><use transform="matrix(0.05,0,0,0.05,0,0)" xlink:href="#be"/><use transform="matrix(0.05,0,0,0.05,12.950000000000001,0)" xlink:href="#bf"/><use transform="matrix(0.05,0,0,0.05,21.950000000000003,0)" xlink:href="#bd"/><use transform="matrix(0.05,0,0,0.05,31.950000000000003,0)" xlink:href="#bg"/><use transform="matrix(0.05,0,0,0.05,37.900000000000006,0)" xlink:href="#aO"/><use transform="matrix(0.05,0,0,0.05,47.900000000000006,0)" xlink:href="#aL"/><use transform="matrix(0.05,0,0,0.05,57.900000000000006,0)" xlink:href="#bc"/><use transform="matrix(0.05,0,0,0.05,72.85000000000001,0)" xlink:href="#bd"/></g><g id="ao"><use transform="matrix(0.05,0,0,0.05,0,0)" xlink:href="#aQ"/><use transform="matrix(0.05,0,0,0.05,12,0)" xlink:href="#aL"/><use transform="matrix(0.05,0,0,0.05,22,0)" xlink:href="#bf"/><use transform="matrix(0.05,0,0,0.05,31,0)" xlink:href="#bf"/><use transform="matrix(0.05,0,0,0.05,40,0)" xlink:href="#bu"/><use transform="matrix(0.05,0,0,0.05,52.95,0)" xlink:href="#bj"/><use transform="matrix(0.05,0,0,0.05,62.95,0)" xlink:href="#bg"/><use transform="matrix(0.05,0,0,0.05,68.9,0)" xlink:href="#bk"/></g><g id="ap"><use transform="matrix(0.05,0,0,0.05,0,0)" xlink:href="#ba"/><use transform="matrix(0.05,0,0,0.05,12,0)" xlink:href="#bc"/><use transform="matrix(0.05,0,0,0.05,26.950000000000003,0)" xlink:href="#aL"/><use transform="matrix(0.05,0,0,0.05,36.95,0)" xlink:href="#aN"/><use transform="matrix(0.05,0,0,0.05,40.900000000000006,0)" xlink:href="#bm"/></g><g id="aq"><use transform="matrix(0.05,0,0,0.05,0,0)" xlink:href="#aK"/><use transform="matrix(0.05,0,0,0.05,12.950000000000001,0)" xlink:href="#bj"/><use transform="matrix(0.05,0,0,0.05,22.950000000000003,0)" xlink:href="#bm"/><use transform="matrix(0.05,0,0,0.05,26.900000000000002,0)" xlink:href="#bd"/></g><g id="ar"><use transform="matrix(0.05,0,0,0.05,0,0)" xlink:href="#ba"/><use transform="matrix(0.05,0,0,0.05,12,0)" xlink:href="#aW"/><use transform="matrix(0.05,0,0,0.05,24.950000000000003,0)" xlink:href="#be"/><use transform="matrix(0.05,0,0,0.05,37.900000000000006,0)" xlink:href="#aS"/><use transform="matrix(0.05,0,0,0.05,52.85,0)" xlink:href="#br"/><use transform="matrix(0.05,0,0,0.05,58.80000000000001,0)" xlink:href="#bs"/><use transform="matrix(0.05,0,0,0.05,62.20000000000002,0)" xlink:href="#aL"/><use transform="matrix(0.05,0,0,0.05,72.20000000000002,0)" xlink:href="#bk"/><use transform="matrix(0.05,0,0,0.05,82.20000000000002,0)" xlink:href="#bc"/><use transform="matrix(0.05,0,0,0.05,97.15000000000002,0)" xlink:href="#aN"/><use transform="matrix(0.05,0,0,0.05,101.10000000000002,0)" xlink:href="#aO"/><use transform="matrix(0.05,0,0,0.05,111.10000000000002,0)" xlink:href="#bs"/><use transform="matrix(0.05,0,0,0.05,114.50000000000003,0)" xlink:href="#bt"/></g><g id="as"><use transform="matrix(0.05,0,0,0.05,0,0)" xlink:href="#bs"/><use transform="matrix(0.05,0,0,0.05,3.4000000000000004,0)" xlink:href="#bC"/><use transform="matrix(0.05,0,0,0.05,13.4,0)" xlink:href="#bf"/><use transform="matrix(0.05,0,0,0.05,22.4,0)" xlink:href="#bd"/><use transform="matrix(0.05,0,0,0.05,32.4,0)" xlink:href="#bg"/><use transform="matrix(0.05,0,0,0.05,38.35,0)" xlink:href="#bs"/><use transform="matrix(0.05,0,0,0.05,41.75,0)" xlink:href="#bw"/></g><g id="at"><use transform="matrix(0.05,0,0,0.05,0,0)" xlink:href="#ba"/><use transform="matrix(0.05,0,0,0.05,12,0)" xlink:href="#aK"/><use transform="matrix(0.05,0,0,0.05,24.950000000000003,0)" xlink:href="#aV"/></g><g id="au"><use transform="matrix(0.05,0,0,0.05,0,0)" xlink:href="#bz"/><use transform="matrix(0.05,0,0,0.05,10,0)" xlink:href="#ba"/><use transform="matrix(0.05,0,0,0.05,22,0)" xlink:href="#bb"/><use transform="matrix(0.05,0,0,0.05,36,0)" xlink:href="#ba"/><use transform="matrix(0.05,0,0,0.05,48,0)" xlink:href="#aW"/><use transform="matrix(0.05,0,0,0.05,60.95,0)" xlink:href="#aV"/></g><path d="M194 0L95-120 63-95V0H30v-248h33v124l119-124h40L117-140 236 0h-42" id="bN"/><g id="av"><use transform="matrix(0.05,0,0,0.05,0,0)" xlink:href="#bN"/><use transform="matrix(0.05,0,0,0.05,12,0)" xlink:href="#bd"/><use transform="matrix(0.05,0,0,0.05,22,0)" xlink:href="#bp"/></g><g id="aw"><use transform="matrix(0.05,0,0,0.05,0,0)" xlink:href="#aQ"/><use transform="matrix(0.05,0,0,0.05,12,0)" xlink:href="#aK"/><use transform="matrix(0.05,0,0,0.05,24.950000000000003,0)" xlink:href="#aR"/><use transform="matrix(0.05,0,0,0.05,29.950000000000003,0)" xlink:href="#aS"/><use transform="matrix(0.05,0,0,0.05,44.900000000000006,0)" xlink:href="#aT"/><use transform="matrix(0.05,0,0,0.05,56.900000000000006,0)" xlink:href="#aK"/><use transform="matrix(0.05,0,0,0.05,69.5,0)" xlink:href="#aU"/></g><path d="M16-82v-28h88v28H16" id="bO"/><g id="ax"><use transform="matrix(0.05,0,0,0.05,0,0)" xlink:href="#bh"/><use transform="matrix(0.05,0,0,0.05,12,0)" xlink:href="#aN"/><use transform="matrix(0.05,0,0,0.05,15.949999999999998,0)" xlink:href="#aO"/><use transform="matrix(0.05,0,0,0.05,25.950000000000003,0)" xlink:href="#aP"/><use transform="matrix(0.05,0,0,0.05,35.95,0)" xlink:href="#bm"/><use transform="matrix(0.05,0,0,0.05,39.900000000000006,0)" xlink:href="#bd"/><use transform="matrix(0.05,0,0,0.05,49.900000000000006,0)" xlink:href="#bO"/><use transform="matrix(0.05,0,0,0.05,55.85,0)" xlink:href="#bi"/><use transform="matrix(0.05,0,0,0.05,64.85000000000001,0)" xlink:href="#bj"/><use transform="matrix(0.05,0,0,0.05,74.85000000000001,0)" xlink:href="#bm"/><use transform="matrix(0.05,0,0,0.05,78.80000000000001,0)" xlink:href="#bC"/><use transform="matrix(0.05,0,0,0.05,88.80000000000001,0)" xlink:href="#bc"/><use transform="matrix(0.05,0,0,0.05,103.75,0)" xlink:href="#aO"/></g><g id="ay"><use transform="matrix(0.05,0,0,0.05,0,0)" xlink:href="#bq"/><use transform="matrix(0.05,0,0,0.05,10,0)" xlink:href="#bg"/><use transform="matrix(0.05,0,0,0.05,15.949999999999998,0)" xlink:href="#aN"/><use transform="matrix(0.05,0,0,0.05,19.9,0)" xlink:href="#bc"/><use transform="matrix(0.05,0,0,0.05,34.85,0)" xlink:href="#aL"/><use transform="matrix(0.05,0,0,0.05,44.85,0)" xlink:href="#bg"/><use transform="matrix(0.05,0,0,0.05,50.800000000000004,0)" xlink:href="#bp"/></g><g id="az"><use transform="matrix(0.05,0,0,0.05,0,0)" xlink:href="#bA"/><use transform="matrix(0.05,0,0,0.05,9,0)" xlink:href="#bd"/><use transform="matrix(0.05,0,0,0.05,19,0)" xlink:href="#bp"/></g><g id="aA"><use transform="matrix(0.05,0,0,0.05,0,0)" xlink:href="#bi"/><use transform="matrix(0.05,0,0,0.05,9,0)" xlink:href="#bj"/><use transform="matrix(0.05,0,0,0.05,19,0)" xlink:href="#bc"/><use transform="matrix(0.05,0,0,0.05,33.95,0)" xlink:href="#bq"/></g><g id="aB"><use transform="matrix(0.05,0,0,0.05,0,0)" xlink:href="#bx"/><use transform="matrix(0.05,0,0,0.05,12.950000000000001,0)" xlink:href="#bj"/><use transform="matrix(0.05,0,0,0.05,22.950000000000003,0)" xlink:href="#bc"/><use transform="matrix(0.05,0,0,0.05,37.900000000000006,0)" xlink:href="#bq"/><use transform="matrix(0.05,0,0,0.05,47.900000000000006,0)" xlink:href="#bj"/><use transform="matrix(0.05,0,0,0.05,57.900000000000006,0)" xlink:href="#bf"/><use transform="matrix(0.05,0,0,0.05,66.9,0)" xlink:href="#aN"/><use transform="matrix(0.05,0,0,0.05,70.85000000000001,0)" xlink:href="#aM"/><use transform="matrix(0.05,0,0,0.05,75.85000000000001,0)" xlink:href="#bd"/></g><g id="aC"><use transform="matrix(0.05,0,0,0.05,0,0)" xlink:href="#bA"/><use transform="matrix(0.05,0,0,0.05,9,0)" xlink:href="#bd"/><use transform="matrix(0.05,0,0,0.05,19,0)" xlink:href="#bp"/></g><g id="aD"><use transform="matrix(0.05,0,0,0.05,0,0)" xlink:href="#br"/><use transform="matrix(0.05,0,0,0.05,5.95,0)" xlink:href="#bc"/><use transform="matrix(0.05,0,0,0.05,20.900000000000002,0)" xlink:href="#bC"/><use transform="matrix(0.05,0,0,0.05,30.900000000000002,0)" xlink:href="#bm"/><use transform="matrix(0.05,0,0,0.05,34.85,0)" xlink:href="#aM"/><use transform="matrix(0.05,0,0,0.05,39.85,0)" xlink:href="#aN"/><use transform="matrix(0.05,0,0,0.05,43.800000000000004,0)" xlink:href="#bO"/><use transform="matrix(0.05,0,0,0.05,49.75000000000001,0)" xlink:href="#bi"/><use transform="matrix(0.05,0,0,0.05,58.75,0)" xlink:href="#bj"/><use transform="matrix(0.05,0,0,0.05,68.75,0)" xlink:href="#bm"/><use transform="matrix(0.05,0,0,0.05,72.7,0)" xlink:href="#bC"/><use transform="matrix(0.05,0,0,0.05,82.7,0)" xlink:href="#bc"/><use transform="matrix(0.05,0,0,0.05,97.65,0)" xlink:href="#aO"/></g><path d="M145-31C134-9 116 4 85 4 32 4 16-35 15-94c0-59 17-99 70-100 32-1 48 14 60 33 0-11-1-24 2-32h30l-1 268h-32zM93-21c41 0 51-33 51-76s-8-73-50-73c-40 0-46 35-46 75s5 74 45 74" id="bP"/><g id="aE"><use transform="matrix(0.05,0,0,0.05,0,0)" xlink:href="#bC"/><use transform="matrix(0.05,0,0,0.05,10,0)" xlink:href="#aO"/><use transform="matrix(0.05,0,0,0.05,20,0)" xlink:href="#aN"/><use transform="matrix(0.05,0,0,0.05,23.95,0)" xlink:href="#bP"/><use transform="matrix(0.05,0,0,0.05,33.95,0)" xlink:href="#bC"/><use transform="matrix(0.05,0,0,0.05,43.95,0)" xlink:href="#bd"/><use transform="matrix(0.05,0,0,0.05,53.95,0)" xlink:href="#aO"/><use transform="matrix(0.05,0,0,0.05,63.95,0)" xlink:href="#bd"/><use transform="matrix(0.05,0,0,0.05,73.95,0)" xlink:href="#bf"/><use transform="matrix(0.05,0,0,0.05,82.95,0)" xlink:href="#bf"/><use transform="matrix(0.05,0,0,0.05,91.95,0)" xlink:href="#bw"/></g><g id="aF"><use transform="matrix(0.05,0,0,0.05,0,0)" xlink:href="#aY"/><use transform="matrix(0.05,0,0,0.05,10.950000000000001,0)" xlink:href="#aZ"/><use transform="matrix(0.05,0,0,0.05,24.950000000000003,0)" xlink:href="#aK"/><use transform="matrix(0.05,0,0,0.05,37.900000000000006,0)" xlink:href="#ba"/><use transform="matrix(0.05,0,0,0.05,49.900000000000006,0)" xlink:href="#aR"/><use transform="matrix(0.05,0,0,0.05,54.900000000000006,0)" xlink:href="#bb"/><use transform="matrix(0.05,0,0,0.05,68.9,0)" xlink:href="#aW"/></g><g id="aG"><use transform="matrix(0.05,0,0,0.05,0,0)" xlink:href="#aY"/><use transform="matrix(0.05,0,0,0.05,10.950000000000001,0)" xlink:href="#bj"/><use transform="matrix(0.05,0,0,0.05,20.950000000000003,0)" xlink:href="#bg"/><use transform="matrix(0.05,0,0,0.05,26.900000000000002,0)" xlink:href="#bd"/><use transform="matrix(0.05,0,0,0.05,36.900000000000006,0)" xlink:href="#aN"/><use transform="matrix(0.05,0,0,0.05,40.85000000000001,0)" xlink:href="#aP"/><use transform="matrix(0.05,0,0,0.05,50.85000000000001,0)" xlink:href="#aO"/></g><g id="aH"><use transform="matrix(0.05,0,0,0.05,0,0)" xlink:href="#bg"/><use transform="matrix(0.05,0,0,0.05,5.95,0)" xlink:href="#bd"/><use transform="matrix(0.05,0,0,0.05,15.949999999999998,0)" xlink:href="#bm"/><use transform="matrix(0.05,0,0,0.05,19.9,0)" xlink:href="#aL"/><use transform="matrix(0.05,0,0,0.05,29.899999999999995,0)" xlink:href="#aM"/><use transform="matrix(0.05,0,0,0.05,34.9,0)" xlink:href="#aN"/><use transform="matrix(0.05,0,0,0.05,38.85,0)" xlink:href="#bj"/><use transform="matrix(0.05,0,0,0.05,48.85,0)" xlink:href="#aO"/><use transform="matrix(0.05,0,0,0.05,58.85,0)" xlink:href="#bf"/><use transform="matrix(0.05,0,0,0.05,67.85,0)" xlink:href="#bv"/><use transform="matrix(0.05,0,0,0.05,77.85,0)" xlink:href="#aN"/><use transform="matrix(0.05,0,0,0.05,81.8,0)" xlink:href="#bq"/></g><g id="aI"><use transform="matrix(0.05,0,0,0.05,0,0)" xlink:href="#bC"/><use transform="matrix(0.05,0,0,0.05,10,0)" xlink:href="#aO"/><use transform="matrix(0.05,0,0,0.05,20,0)" xlink:href="#aN"/><use transform="matrix(0.05,0,0,0.05,23.95,0)" xlink:href="#bP"/><use transform="matrix(0.05,0,0,0.05,33.95,0)" xlink:href="#bC"/><use transform="matrix(0.05,0,0,0.05,43.95,0)" xlink:href="#bd"/></g><g id="aJ"><use transform="matrix(0.05,0,0,0.05,0,0)" xlink:href="#bi"/><use transform="matrix(0.05,0,0,0.05,9,0)" xlink:href="#bj"/><use transform="matrix(0.05,0,0,0.05,19,0)" xlink:href="#aO"/><use transform="matrix(0.05,0,0,0.05,29,0)" xlink:href="#bf"/><use transform="matrix(0.05,0,0,0.05,38,0)" xlink:href="#aM"/><use transform="matrix(0.05,0,0,0.05,43,0)" xlink:href="#bg"/><use transform="matrix(0.05,0,0,0.05,48.95,0)" xlink:href="#aL"/><use transform="matrix(0.05,0,0,0.05,58.95,0)" xlink:href="#aN"/><use transform="matrix(0.05,0,0,0.05,62.900000000000006,0)" xlink:href="#aO"/><use transform="matrix(0.05,0,0,0.05,72.9,0)" xlink:href="#aM"/></g></defs></g></svg>